<svg width="417" height="421" viewBox="0 0 417 421" fill="none" xmlns="http://www.w3.org/2000/svg">
<g clip-path="url(#clip0_109_190)">
<path d="M261.482 418.765H132.96C116.215 418.765 102.594 404.225 102.594 386.35V32.415C102.594 14.5399 116.215 0 132.96 0H261.482C278.227 0 291.848 14.5399 291.848 32.415V386.343C291.848 404.218 278.227 418.758 261.482 418.758V418.765Z" fill="#2F2E43"/>
<path d="M261.892 410.37H133.113C120.549 410.37 110.323 399.455 110.323 386.043V31.4386C110.323 18.0269 120.549 7.11148 133.113 7.11148H261.892C274.456 7.11148 284.682 18.0269 284.682 31.4386V386.043C284.682 399.455 274.456 410.37 261.892 410.37Z" fill="white"/>
<path d="M217.336 29.8271H176.354C171.63 29.8271 167.786 25.7233 167.786 20.6816C167.786 15.6399 171.63 11.536 176.354 11.536H217.336C222.059 11.536 225.903 15.6399 225.903 20.6816C225.903 25.7233 222.059 29.8271 217.336 29.8271Z" fill="#2F2E43"/>
<path d="M224.562 176.135L211.826 165.558C211.826 165.558 197.294 170.396 196.917 170.593C196.541 170.79 174.359 225.706 174.359 225.706C174.359 225.706 231.181 256.746 227.026 253.721C222.871 250.703 223.73 209.791 227.594 204.454C231.472 199.109 228.162 185.711 228.162 185.711L224.575 176.142H224.556L224.562 176.135Z" fill="#2F2E43"/>
<path d="M189.347 200.878H206.621V230.127L187.577 223.45L189.347 200.878Z" fill="#F3A3A6"/>
<path d="M226.914 270.158C224.377 271.279 221.768 272.252 219.093 273.063C212.685 275.023 205.914 276.06 198.932 276.06C192.815 276.06 186.87 275.263 181.182 273.747C179.174 273.218 177.199 272.598 175.27 271.892C172.833 271.004 170.455 269.996 168.136 268.839L169.239 263.085L172.152 247.854L175.567 230.057L176.202 226.708L177.714 218.817L177.734 218.718H212.282L212.302 218.789L221.51 251.126L225.362 264.672L226.92 270.165L226.914 270.158Z" fill="#6C63FF"/>
<path d="M238.692 263.579C234.986 266.139 231.042 268.346 226.914 270.158C224.377 271.279 221.768 272.252 219.093 273.063L217.838 267.499L213.141 246.691L206.819 218.725H206.826C206.826 218.725 207.434 218.711 208.464 218.711C209.428 218.711 210.756 218.725 212.295 218.782C215.988 218.923 220.87 219.325 224.688 220.382C227.634 221.193 229.946 222.399 230.606 224.169C231.26 225.925 233.989 239.379 237.516 257.557C237.899 259.517 238.282 261.52 238.685 263.579H238.692Z" fill="#6C63FF"/>
<path d="M204.256 208.966C214.734 208.966 223.228 199.899 223.228 188.715C223.228 177.53 214.734 168.463 204.256 168.463C193.778 168.463 185.284 177.53 185.284 188.715C185.284 199.899 193.778 208.966 204.256 208.966Z" fill="#F3A3A6"/>
<path d="M227.891 184.999V185.027L223.241 185.88C222.99 184.787 222.706 183.772 222.415 182.841C222.059 181.713 221.682 180.698 221.286 179.788C220.275 177.475 219.139 175.853 217.976 174.732C213.61 170.508 208.774 173.315 208.134 173.174C207.288 172.99 195.893 186.191 194.433 200.871C194.281 202.5 194.242 204.15 194.354 205.807C194.361 205.871 194.361 205.927 194.361 205.991C194.665 210.997 193.02 215.193 190.595 218.598C190.569 218.634 190.543 218.669 190.516 218.704C189.657 219.903 188.693 221.003 187.696 222.011C184.815 224.888 181.565 226.982 179.141 228.308C177.272 229.338 175.898 229.909 175.561 230.043C175.508 230.064 175.482 230.071 175.482 230.071C175.482 230.071 172.397 236.255 172.152 247.84C172.053 252.699 172.45 258.502 173.777 265.201C174.055 266.597 174.365 268.021 174.729 269.488C174.927 270.299 175.112 271.103 175.27 271.878C172.833 270.99 170.455 269.982 168.136 268.825C166.286 267.915 164.49 266.928 162.732 265.857C161.127 264.89 159.555 263.854 158.029 262.754C158.835 260.702 159.615 258.911 160.295 257.494C160.757 256.528 161.174 255.745 161.51 255.174C165.665 248.115 162.832 235.832 162.832 235.832C156.417 229.789 163.961 216.49 163.961 216.49C163.961 216.49 162.633 198.756 166.603 195.336C170.573 191.909 170.758 183.44 170.758 183.44C177.754 150.997 200.59 157.245 200.59 157.245C229.332 153.874 227.958 183.913 227.898 184.978L227.891 184.999Z" fill="#2F2E43"/>
<path d="M192.822 218.845L191.553 224.839L189.605 234.006L182.365 268.169L181.182 273.747C179.174 273.218 177.199 272.598 175.27 271.892C172.833 271.004 170.455 269.996 168.136 268.839C166.286 267.93 164.49 266.942 162.732 265.871C163.122 263.861 163.499 261.894 163.875 259.969C167.799 239.661 170.904 224.225 171.611 222.336C172.278 220.545 174.418 219.508 177.1 218.937C177.298 218.895 177.51 218.852 177.714 218.817C177.906 218.782 178.111 218.747 178.302 218.718C181.46 218.225 185.119 218.26 187.98 218.415C188.97 218.472 189.862 218.542 190.602 218.606C191.018 218.641 191.395 218.683 191.699 218.711C192.412 218.789 192.828 218.845 192.828 218.845H192.822Z" fill="#6C63FF"/>
<path d="M198.932 277.47C192.815 277.47 186.731 276.68 180.859 275.115C178.837 274.586 176.809 273.944 174.834 273.225C172.337 272.316 169.893 271.272 167.574 270.123C165.738 269.22 163.888 268.205 162.072 267.098C160.44 266.117 158.828 265.053 157.283 263.939C136.448 249.018 124.003 224.176 124.003 197.494C124.003 153.395 157.613 117.51 198.932 117.51C240.251 117.51 273.861 153.388 273.861 197.494C273.861 224.782 260.98 249.928 239.412 264.764C235.627 267.373 231.591 269.629 227.422 271.462C224.84 272.605 222.164 273.599 219.463 274.424C212.824 276.448 205.921 277.477 198.939 277.477L198.932 277.47ZM198.932 120.324C159.073 120.324 126.645 154.939 126.645 197.487C126.645 223.231 138.648 247.192 158.756 261.597C160.242 262.669 161.794 263.692 163.373 264.637C165.13 265.708 166.914 266.689 168.684 267.556C170.924 268.67 173.275 269.671 175.693 270.553C177.595 271.251 179.551 271.864 181.499 272.379C187.167 273.888 193.033 274.65 198.939 274.65C205.67 274.65 212.335 273.655 218.736 271.702C221.345 270.912 223.928 269.946 226.418 268.846C230.441 267.076 234.332 264.905 237.985 262.387C258.8 248.073 271.225 223.809 271.225 197.487C271.225 154.939 238.798 120.324 198.939 120.324H198.932Z" fill="#2F2E43"/>
<path d="M0 419.808C0 420.471 0.706814 421 1.59198 421H457.408C458.287 421 459 420.471 459 419.808C459 419.146 458.293 418.617 457.408 418.617H1.59198C0.71342 418.617 0 419.146 0 419.808Z" fill="#2F2E43"/>
<path d="M287.079 226.313C288.486 224.839 290.217 223.753 292.132 223.147L306.064 206.936L313.409 214.452L298.48 230.092C297.84 232.095 296.756 233.886 295.31 235.317C291.736 238.963 287 239.901 284.727 237.411C282.448 234.929 283.499 229.958 287.066 226.32H287.079V226.313Z" fill="#F3A3A6"/>
<path d="M292.885 219.014L300.284 228.943L338.524 198.044L338.558 197.973L360.905 153.458C364.327 146.64 362.431 138.157 356.492 133.729C352.859 131.014 348.341 130.259 344.1 131.648C339.859 133.038 336.523 136.373 334.938 140.794L320.438 181.304L292.885 219V219.014Z" fill="#D5D5D6"/>
<path d="M355.858 116.051H340.268V142.451L357.457 136.422L355.858 116.051Z" fill="#F3A3A6"/>
<path d="M325.273 105.079C325.273 115.177 332.936 123.356 342.395 123.356C351.855 123.356 359.517 115.177 359.517 105.079C359.517 94.9815 351.855 86.8019 342.395 86.8019C332.936 86.8019 325.273 94.9815 325.273 105.079Z" fill="#F3A3A6"/>
<path d="M354.51 116.763L356.182 120.148L363.554 105.192C367.993 90.6802 352.489 82.3455 352.489 82.3455C347.429 75.9852 337.263 83.4243 337.263 83.4243C322.598 79.948 329.679 93.1411 329.679 93.1411C329.679 93.1411 334.68 93.261 334.68 97.5764C334.68 101.899 340.13 101.596 340.13 101.596L344.397 109.571L346.755 106.51C355.521 102.548 354.51 116.763 354.51 116.763Z" fill="#2F2E43"/>
<path d="M362.173 386.561H348.341V407.511H362.173V386.561Z" fill="#F3A3A6"/>
<path d="M334.872 420.189C340.942 420.189 349.807 419.512 349.873 419.505C352.245 419.731 364.082 420.725 364.67 417.834C365.212 415.176 364.412 412.397 364.3 412.017C363.157 399.938 362.735 399.797 362.484 399.719C362.081 399.592 360.905 400.192 358.996 401.503L358.877 401.588L358.85 401.736C358.817 401.919 357.972 406.354 353.962 405.677C351.214 405.212 350.322 404.563 350.038 404.246C350.27 404.133 350.56 403.936 350.765 403.597C351.062 403.104 351.115 402.469 350.917 401.708C350.402 399.705 348.856 396.736 348.79 396.609L348.611 396.271L332.89 407.595L323.179 410.557C322.446 410.776 321.858 411.34 321.561 412.087C321.151 413.131 321.402 414.344 322.195 415.105C323.959 416.797 327.466 419.696 331.139 420.055C332.117 420.154 333.412 420.189 334.865 420.189H334.872Z" fill="#2F2E43"/>
<path d="M391.46 355.157L380.802 364.569L393.312 380.711L403.97 371.299L391.46 355.157Z" fill="#F3A3A6"/>
<path d="M390.518 399.62C395.195 395.488 401.623 388.938 401.669 388.888C403.631 387.457 413.348 380.166 412.073 377.536C410.904 375.117 408.631 373.516 408.314 373.305C400.222 364.766 399.819 364.949 399.575 365.062C399.185 365.238 398.637 366.493 397.95 368.806L397.91 368.947L397.976 369.081C398.069 369.25 400.064 373.248 396.569 375.448C394.171 376.957 393.101 377.063 392.692 377.014C392.804 376.767 392.91 376.414 392.863 376.012C392.797 375.434 392.46 374.905 391.853 374.454C390.254 373.262 387.295 372.021 387.169 371.972L386.832 371.831L381.482 391.25L375.768 400.142C375.338 400.812 375.219 401.644 375.437 402.427C375.748 403.513 376.666 404.274 377.73 404.324C380.094 404.429 384.527 404.274 387.572 402.053C388.378 401.461 389.395 400.608 390.518 399.62Z" fill="#2F2E43"/>
<path d="M325.472 225.008L346.557 392.428H362.371L372.914 225.008H325.465H325.472Z" fill="#2F2E43"/>
<path d="M366.321 316.457L397.811 360.069L384.335 371.951L330.294 317.084L325.465 225.008L335.129 234.231L366.321 316.457Z" fill="#2F2E43"/>
<path d="M335.186 126.379L325.522 224.865H372.971L376.651 192.901C378.916 173.158 375.145 153.16 365.897 135.898L358.617 122.318L335.186 126.379Z" fill="#D5D5D6"/>
<path d="M330.875 252.995C331.582 251.028 332.738 249.272 334.244 247.876L340.618 226.947L350.23 230.536L342.732 251.373C342.937 253.474 342.64 255.583 341.88 257.536C340.05 262.43 336.1 265.384 333.068 264.129C330.036 262.874 329.058 257.889 330.888 252.995H330.875Z" fill="#F3A3A6"/>
<path d="M333.339 243.736L343.928 249.49L366.711 204.439V204.362L369.743 153.966C370.206 146.252 365.185 139.37 358.058 137.973C353.691 137.12 349.285 138.432 345.976 141.577C342.653 144.722 340.916 149.242 341.193 153.966L343.75 197.24L333.339 243.744V243.736Z" fill="#D5D5D6"/>
</g>
<defs>
<clipPath id="clip0_109_190">
<rect width="459" height="421" fill="white"/>
</clipPath>
</defs>
</svg>
