<svg width="131" height="110" viewBox="0 0 131 110" fill="none" xmlns="http://www.w3.org/2000/svg">
<g clip-path="url(#clip0_103_146)">
<path d="M12.0006 98.1043C11.7633 96.6346 11.3003 95.2068 10.6269 93.8676L10.5287 93.6726L9.79952 94.4493L10.3398 93.2924L10.3045 93.2252C9.82771 92.3185 9.29931 91.4378 8.72169 90.5869L8.61457 90.4294L8.47167 90.5816L8.57171 90.3673L8.52162 90.2951C7.80622 89.2642 7.2566 88.6123 7.25116 88.6057L7.09574 88.422L6.99577 88.6411C6.97744 88.6812 5.16087 92.7025 4.92024 96.6762L4.91644 96.7381L6.13904 98.1578L4.89221 97.4059L4.89437 97.6788C4.89816 98.1458 4.93125 98.6122 4.99344 99.0754C5.04835 99.4739 5.11298 99.8629 5.18733 100.242C5.30519 100.246 5.41982 100.28 5.51886 100.342C5.43274 99.9176 5.35846 99.4817 5.29602 99.0341C5.24787 98.6767 5.21753 98.3136 5.20545 97.9516L7.6171 99.4062L5.22886 96.6329C5.4463 93.2733 6.79593 89.8884 7.17483 88.995C7.37819 89.2484 7.76179 89.7402 8.22069 90.3973L7.38646 92.1839L8.57581 90.917C9.09145 91.6881 9.56642 92.4837 9.99893 93.3006L8.71432 96.0517L10.4512 94.2014C11.0579 95.4547 11.4778 96.7838 11.6986 98.1496C12.0026 100.356 11.9433 102.475 11.5315 104.117C11.1371 105.69 10.442 106.657 9.62428 106.77C9.45599 106.792 9.28478 106.782 9.12043 106.741C8.98863 106.831 8.83003 106.877 8.66842 106.873H8.62385C8.87749 107.009 9.16181 107.082 9.45186 107.087C9.52352 107.087 9.59509 107.082 9.66602 107.072C10.6273 106.94 11.3951 105.916 11.8277 104.191C12.2487 102.512 12.3103 100.352 12.0006 98.1043Z" fill="#E6E6E6"/>
<path d="M9.31003 106.971C8.05255 106.971 6.23949 106.306 4.44118 105.097C4.17649 104.917 3.92374 104.722 3.68442 104.512L3.483 104.335L4.24454 104.125L3.23052 104.089L3.18773 104.046C1.287 102.134 0.104213 99.4324 0.0924347 99.4054L0 99.192L0.24033 99.2025C0.264259 99.2035 0.835639 99.2294 1.69439 99.3464L1.74791 99.3537V99.3533L1.93621 99.3808C2.63745 99.4832 3.33213 99.6234 4.01696 99.8009L4.09009 99.8199L4.31856 100.361L4.28391 99.8756L4.49353 99.9338C5.48704 100.209 6.43069 100.63 7.29154 101.18C10.0263 103.02 11.5396 105.319 10.7396 106.416C10.4662 106.792 9.96289 106.971 9.31003 106.971ZM4.09754 104.471C4.26459 104.607 4.43843 104.736 4.61673 104.857C7.12149 106.542 9.8109 107.179 10.4895 106.248C11.1679 105.318 9.62453 103.108 7.1194 101.422C6.34654 100.928 5.50452 100.543 4.6186 100.276L4.75405 102.171L3.86429 100.065C3.2783 99.9159 2.67881 99.793 2.07866 99.6992L2.17697 101.074L1.56459 99.6251C1.09012 99.5625 0.707636 99.5286 0.474983 99.5113C0.792169 100.18 1.84026 102.247 3.36595 103.8L6.16434 103.899L4.09754 104.471Z" fill="#E6E6E6"/>
<path d="M49.5204 106.805H0.0515137V107.134H49.5204V106.805Z" fill="#3F3D56"/>
<path d="M118.65 25.3651H118.04V9.29877C118.04 8.07764 117.789 6.86846 117.303 5.74029C116.816 4.61211 116.103 3.58702 115.205 2.72355C114.306 1.86008 113.239 1.17514 112.064 0.70783C110.89 0.240523 109.631 1.34823e-06 108.36 0H72.9284C70.3613 -5.44566e-06 67.8993 0.979677 66.0841 2.72353C64.2688 4.46738 63.249 6.83255 63.249 9.29873V97.4399C63.249 99.9061 64.2688 102.271 66.084 104.015C67.8993 105.759 70.3612 106.739 72.9283 106.739H108.36C110.927 106.739 113.389 105.759 115.204 104.015C117.02 102.271 118.039 99.9061 118.04 97.4399V36.8014H118.65L118.65 25.3651Z" fill="#E6E6E6"/>
<path d="M108.751 2.4192H104.126C104.338 2.92015 104.42 3.46366 104.362 4.00186C104.305 4.54005 104.11 5.05641 103.796 5.50545C103.482 5.95449 103.058 6.32242 102.561 6.57684C102.064 6.83125 101.509 6.96434 100.946 6.96438H80.6476C80.0845 6.96434 79.5299 6.83125 79.0329 6.57684C78.5359 6.32242 78.1117 5.95449 77.7975 5.50545C77.4834 5.05641 77.2891 4.54005 77.2316 4.00185C77.1741 3.46366 77.2553 2.92014 77.468 2.41919H73.1482C72.199 2.41919 71.259 2.5988 70.382 2.94778C69.505 3.29676 68.7082 3.80827 68.037 4.45309C67.3657 5.09792 66.8333 5.86345 66.47 6.70596C66.1068 7.54846 65.9198 8.45146 65.9198 9.36339V97.3752C65.9198 98.2872 66.1068 99.1902 66.47 100.033C66.8333 100.875 67.3657 101.641 68.0369 102.286C68.7082 102.93 69.505 103.442 70.382 103.791C71.259 104.14 72.199 104.319 73.1482 104.319H108.751C109.7 104.319 110.64 104.14 111.517 103.791C112.394 103.442 113.191 102.93 113.862 102.286C114.533 101.641 115.066 100.875 115.429 100.033C115.792 99.1902 115.979 98.2872 115.979 97.3752V9.3634C115.979 8.45147 115.792 7.54847 115.429 6.70596C115.066 5.86345 114.533 5.09793 113.862 4.4531C113.191 3.80827 112.394 3.29677 111.517 2.94779C110.64 2.59881 109.7 2.41919 108.751 2.4192Z" fill="white"/>
<path d="M91.9175 35.936C89.7133 35.936 87.5586 35.3081 85.7258 34.1316C83.8931 32.9552 82.4647 31.2831 81.6212 29.3267C80.7777 27.3704 80.557 25.2177 80.987 23.1408C81.417 21.064 82.4784 19.1562 84.037 17.6589C85.5956 16.1616 87.5814 15.1419 89.7433 14.7288C91.9051 14.3157 94.1459 14.5277 96.1823 15.3381C98.2188 16.1484 99.9593 17.5207 101.184 19.2813C102.408 21.042 103.062 23.112 103.062 25.2295C103.059 28.0681 101.884 30.7894 99.7942 32.7966C97.7049 34.8037 94.8722 35.9328 91.9175 35.936ZM91.9175 14.8164C89.7737 14.8164 87.678 15.4271 85.8955 16.5713C84.113 17.7155 82.7237 19.3419 81.9033 21.2446C81.0828 23.1474 80.8682 25.2411 81.2864 27.261C81.7047 29.281 82.737 31.1364 84.2529 32.5927C85.7688 34.049 87.7002 35.0408 89.8028 35.4426C91.9054 35.8444 94.0849 35.6382 96.0655 34.85C98.0461 34.0619 99.739 32.7272 100.93 31.0148C102.121 29.3023 102.757 27.2891 102.757 25.2295C102.754 22.4688 101.61 19.822 99.5784 17.8698C97.5464 15.9176 94.7912 14.8195 91.9175 14.8164Z" fill="#3F3D56"/>
<path d="M89.7801 97.6815C88.6629 97.6815 87.5708 97.3632 86.6419 96.767C85.713 96.1707 84.989 95.3232 84.5615 94.3316C84.1339 93.34 84.0221 92.2489 84.24 91.1963C84.458 90.1436 84.9959 89.1767 85.7859 88.4178C86.5759 87.6589 87.5824 87.142 88.6781 86.9326C89.7739 86.7233 90.9096 86.8307 91.9418 87.2414C92.9739 87.6522 93.8561 88.3477 94.4768 89.2401C95.0975 90.1325 95.4288 91.1817 95.4288 92.2549C95.4271 93.6937 94.8315 95.073 93.7725 96.0903C92.7135 97.1076 91.2777 97.6799 89.7801 97.6815ZM89.7801 87.1217C88.7233 87.1217 87.6902 87.4228 86.8115 87.9868C85.9328 88.5509 85.248 89.3526 84.8435 90.2905C84.4391 91.2285 84.3333 92.2606 84.5395 93.2564C84.7457 94.2521 85.2546 95.1668 86.0018 95.8847C86.7491 96.6026 87.7012 97.0915 88.7377 97.2895C89.7742 97.4876 90.8486 97.3859 91.8249 96.9974C92.8013 96.6089 93.6358 95.951 94.2229 95.1068C94.8101 94.2626 95.1234 93.2702 95.1234 92.2549C95.1218 90.894 94.5584 89.5892 93.5566 88.6269C92.5549 87.6646 91.1968 87.1232 89.7801 87.1217Z" fill="#3F3D56"/>
<path d="M131 65.7668H108.164V43.8291H131V65.7668ZM108.47 65.4735H130.695V44.1224H108.47V65.4735Z" fill="#3F3D56"/>
<path d="M82.7746 77.5H70.3915V65.6038H82.7746V77.5ZM70.6968 77.2067H82.4693V65.8971H70.6968V77.2067Z" fill="#3F3D56"/>
<path d="M13.1719 35.253C15.9483 35.253 18.199 33.0908 18.199 30.4236C18.199 27.7564 15.9483 25.5942 13.1719 25.5942C10.3956 25.5942 8.1449 27.7564 8.1449 30.4236C8.1449 33.0908 10.3956 35.253 13.1719 35.253Z" fill="#2F2E41"/>
<path d="M21.5503 41.9221C24.8554 41.9221 27.5348 39.3481 27.5348 36.1729C27.5348 32.9976 24.8554 30.4236 21.5503 30.4236C18.2451 30.4236 15.5657 32.9976 15.5657 36.1729C15.5657 39.3481 18.2451 41.9221 21.5503 41.9221Z" fill="#2F2E41"/>
<path d="M28.4496 85.6576L25.5143 90.6466C25.5143 90.6466 21.6759 86.9591 23.708 85.983L26.8691 85.0068L28.4496 85.6576Z" fill="#FFB8B8"/>
<path d="M23.2564 98.9978L24.1596 102.685L21.45 103.553L20.5469 99.3232L23.2564 98.9978Z" fill="#FFB8B8"/>
<path d="M28.9061 61.7807L29.488 67.4855C29.488 67.4855 39.9651 76.7641 36.3524 80.2347C32.7397 83.7054 28.2239 86.5252 28.2239 86.5252L26.1918 85.1153L30.8205 79.0417L21.4501 72.6427L23.5952 99.4316L20.3212 100.299L12.9829 73.185C12.9829 73.185 10.725 64.5085 16.2569 60.1702L28.9061 61.7807Z" fill="#2F2E41"/>
<path d="M22.2403 102.577C22.2403 102.577 23.9338 100.516 24.7241 102.36C25.2448 103.628 25.6601 104.933 25.9659 106.264C25.9659 106.264 28.9012 110.494 24.3854 109.952C19.8695 109.41 21.2243 107.458 21.2243 107.458C20.984 107.308 20.7929 107.096 20.673 106.847C20.5531 106.597 20.5093 106.32 20.5469 106.048C20.6598 105.071 21.2243 102.794 21.2243 102.794C21.2243 102.794 21.7888 101.818 22.2403 102.577Z" fill="#2F2E41"/>
<path d="M26.9255 88.4233C26.9255 88.4233 27.8851 89.3452 26.3046 90.8636C26.3046 90.8636 26.0788 95.0934 24.0467 94.6596C22.0146 94.2258 21.3372 88.9113 21.563 88.3691C21.7888 87.8268 21.2243 83.8139 22.579 83.9223C23.9338 84.0308 25.6272 85.4407 25.6272 85.4407C25.6272 85.4407 22.6919 88.0437 25.5143 89.779C25.5143 89.779 26.2482 89.5079 26.9255 88.4233Z" fill="#2F2E41"/>
<path d="M18.5148 46.5046L27.0949 46.7215C25.2041 44.1438 24.8482 41.1029 25.6272 37.7196L19.9824 38.8042C21.0695 41.5654 21.0882 43.9339 18.5148 46.5046Z" fill="#FFB8B8"/>
<path d="M15.8053 60.4956L29.1271 64.0747L31.6837 47.1544C31.6315 46.3936 31.3033 45.6746 30.7561 45.1224C30.2089 44.5703 29.4774 44.22 28.6891 44.1326L25.6273 43.7932L20.0954 44.3355L17.479 45.0458C16.7458 45.2449 16.1042 45.6762 15.6584 46.2697C15.2125 46.8632 14.9886 47.5841 15.023 48.3153L15.8053 60.4956Z" fill="#DEDDEA"/>
<path d="M28.5626 60.8209L30.7076 63.2069L35.9009 57.8925L33.9702 48.6958C33.7399 47.5988 33.1749 46.5926 32.3472 45.8051C31.5194 45.0177 30.4665 44.4848 29.3224 44.2744L27.8853 44.01L31.0463 56.3741L28.5626 60.8209Z" fill="#DEDDEA"/>
<path d="M28.6689 64.1748L30.256 62.1224L28.9012 60.8209L26.7008 61.3724C26.3898 61.4503 26.1051 61.6041 25.8742 61.8189C25.6433 62.0337 25.4741 62.3021 25.3829 62.5982C25.2918 62.8943 25.2819 63.2079 25.3541 63.5088C25.4263 63.8097 25.5782 64.0875 25.795 64.3154C25.9806 64.5103 26.2087 64.6635 26.4631 64.7638C26.7175 64.8642 26.9918 64.9093 27.2665 64.8958C27.5411 64.8824 27.8093 64.8108 28.0517 64.6861C28.2942 64.5615 28.505 64.3869 28.6689 64.1748Z" fill="#FFB8B8"/>
<path d="M18.1761 61.4716L16.0311 63.8577L10.8379 58.5433L12.7686 49.3466C12.9989 48.2496 13.5639 47.2433 14.3916 46.4559C15.2193 45.6685 16.2723 45.1356 17.4164 44.9251L18.8535 44.6608L15.6924 57.0249L18.1761 61.4716Z" fill="#DEDDEA"/>
<path d="M18.0697 64.8256L16.4827 62.7732L17.8374 61.4717L20.0378 62.0231C20.3488 62.1011 20.6335 62.2549 20.8644 62.4696C21.0953 62.6844 21.2646 62.9529 21.3557 63.2489C21.4468 63.545 21.4568 63.8587 21.3846 64.1596C21.3124 64.4604 21.1605 64.7383 20.9436 64.9661C20.758 65.1611 20.5299 65.3142 20.2755 65.4146C20.0211 65.5149 19.7468 65.56 19.4722 65.5466C19.1975 65.5331 18.9294 65.4615 18.6869 65.3369C18.4444 65.2122 18.2337 65.0376 18.0697 64.8256Z" fill="#FFB8B8"/>
<path d="M22.3777 40.4032C24.5423 40.4032 26.2971 38.7174 26.2971 36.6379C26.2971 34.5584 24.5423 32.8727 22.3777 32.8727C20.2131 32.8727 18.4584 34.5584 18.4584 36.6379C18.4584 38.7174 20.2131 40.4032 22.3777 40.4032Z" fill="#FFB8B8"/>
<path d="M26.5773 36.288H19.8746L17.8398 33.6433C19.8416 31.96 22.347 31.6583 25.141 32.1485L26.5773 36.288Z" fill="#2F2E41"/>
<path d="M85.8107 32.2695C90.8697 32.2695 94.9707 28.3296 94.9707 23.4696C94.9707 18.6096 90.8697 14.6698 85.8107 14.6698C80.7518 14.6698 76.6508 18.6096 76.6508 23.4696C76.6508 28.3296 80.7518 32.2695 85.8107 32.2695Z" fill="#E6E6E6"/>
<path d="M124.589 40.0676H104.562V59.3071H124.589V40.0676Z" fill="#DEDDEA"/>
<path d="M73.899 73.9691H84.6348V63.6555H73.899V73.9691Z" fill="#E6E6E6"/>
<path d="M86.7267 95.7748C89.2562 95.7748 91.3067 93.8049 91.3067 91.3749C91.3067 88.9449 89.2562 86.975 86.7267 86.975C84.1973 86.975 82.1467 88.9449 82.1467 91.3749C82.1467 93.8049 84.1973 95.7748 86.7267 95.7748Z" fill="#DEDDEA"/>
</g>
<defs>
<clipPath id="clip0_103_146">
<rect width="131" height="110" fill="white"/>
</clipPath>
</defs>
</svg>
