<svg width="349" height="296" viewBox="0 0 349 296" fill="none" xmlns="http://www.w3.org/2000/svg">
<g clip-path="url(#clip0_72_98)">
<path d="M239.895 91.4939C239.883 98.182 237.846 104.716 234.041 110.271C230.235 115.825 224.833 120.15 218.518 122.698C212.202 125.247 205.256 125.904 198.559 124.588C191.861 123.271 185.713 120.04 180.891 115.303C176.069 110.565 172.791 104.534 171.47 97.9722C170.149 91.4104 170.846 84.6124 173.471 78.438C176.096 72.2636 180.533 66.9901 186.219 63.2843C191.906 59.5785 198.587 57.6068 205.418 57.6187C209.957 57.615 214.452 58.4896 218.645 60.1922C222.837 61.8948 226.645 64.3918 229.849 67.5397C233.053 70.6876 235.59 74.4244 237.314 78.5352C239.038 82.6461 239.915 87.05 239.895 91.4939Z" fill="#F2F2F2"/>
<path d="M297.379 111.206L302.235 102.127C297.88 96.9783 283.592 90.7339 283.592 90.7339L264.254 73.5011C264.048 72.7322 263.639 72.0301 263.068 71.4653C262.497 70.9005 261.784 70.4929 261 70.2837C260.217 70.0745 259.391 70.071 258.606 70.2736C257.821 70.4761 257.105 70.8776 256.528 71.4375C255.952 71.9974 255.537 72.6961 255.324 73.4632C255.111 74.2302 255.109 75.0386 255.317 75.807C255.524 76.5754 255.935 77.2766 256.508 77.84C257.08 78.4035 257.795 78.8093 258.578 79.0167L279.47 103.548L297.379 111.206Z" fill="#9E616A"/>
<path d="M295.026 110.579L301.883 112.717C306.87 114.271 312.243 114.154 317.154 112.384C318.64 111.843 319.941 110.905 320.911 109.677C321.881 108.45 322.481 106.981 322.643 105.437C322.848 103.343 322.233 101.251 320.923 99.5834C319.613 97.9158 317.705 96.7976 315.585 96.4547C309.154 95.4201 300.868 94.9098 297.912 98.3539L297.882 98.3888L295.026 110.579Z" fill="#3F3D56"/>
<path d="M245.704 138.373C264.779 138.373 280.242 123.233 280.242 104.557C280.242 85.8814 264.779 70.7418 245.704 70.7418C226.628 70.7418 211.165 85.8814 211.165 104.557C211.165 123.233 226.628 138.373 245.704 138.373Z" fill="white"/>
<path d="M231.608 91.3304C231.134 93.824 230.356 96.2529 229.292 98.5655C223.2 111.185 240.551 107.071 246.751 107.071C253.53 107.071 260.017 110.562 259.026 95.0532C258.603 88.4287 253.53 83.035 246.751 83.035C240.96 83.035 232.819 85.555 231.608 91.3304Z" fill="#2F2E41"/>
<path d="M245.735 107.068C251.244 107.068 255.71 102.696 255.71 97.3023C255.71 91.9086 251.244 87.5361 245.735 87.5361C240.226 87.5361 235.76 91.9086 235.76 97.3023C235.76 102.696 240.226 107.068 245.735 107.068Z" fill="#FFB6B6"/>
<path d="M238.961 87.3471C240.709 86.3038 242.711 85.7394 244.758 85.713C246.805 85.6866 248.822 86.199 250.597 87.1968C252.373 88.1947 253.842 89.6411 254.851 91.3851C255.86 93.129 256.371 95.1062 256.333 97.1102C251.25 98.3596 245.91 99.3157 240.49 97.409L239.21 94.3417L238.455 97.4113C236.804 98.0719 235.149 98.6308 233.494 97.4049C233.427 95.4066 233.896 93.426 234.856 91.661C235.815 89.896 237.231 88.4085 238.961 87.3471Z" fill="#2F2E41"/>
<path d="M272.559 127.042C266.575 133.708 258.154 137.803 249.113 138.443C240.073 139.082 231.138 136.216 224.237 130.461L227.2 122.368C227.869 120.931 228.926 119.699 230.256 118.805C231.586 117.91 233.14 117.387 234.75 117.292L236.635 117.178L241.129 113.384C241.129 113.384 253.238 112.96 253.058 112.758L260.393 117.077L260.386 117.047L263.27 117.22C264.881 117.315 266.434 117.838 267.765 118.732C269.095 119.627 270.151 120.859 270.82 122.297L272.559 127.042Z" fill="#6C63FF"/>
<path d="M242.673 266.381L241.815 254.695C236.193 251.943 229.971 250.577 223.687 250.715C232.527 257.405 231.819 270.775 237.941 279.926C239.873 282.766 242.433 285.144 245.431 286.883C248.429 288.622 251.788 289.679 255.26 289.975L262.617 294.119C263.458 288.673 263.084 283.113 261.52 277.822C259.955 272.532 257.238 267.636 253.555 263.473C251.465 261.157 249.086 259.108 246.473 257.375C244.865 261.895 242.673 266.381 242.673 266.381Z" fill="#F2F2F2"/>
<path d="M18.9863 59.2389L18.1281 47.5523C12.5063 44.8009 6.2835 43.4346 0 43.5722C8.84003 50.2621 8.13196 63.633 14.2541 72.7837C16.1859 75.6234 18.7456 78.0011 21.7436 79.7406C24.7415 81.4801 28.1009 82.5368 31.5726 82.8323L38.9297 86.9762C39.7713 81.5304 39.397 75.9706 37.8326 70.6799C36.2682 65.3893 33.5509 60.4936 29.8679 56.3302C27.7781 54.0146 25.3988 51.9658 22.7861 50.2323C21.178 54.7526 18.9863 59.2389 18.9863 59.2389Z" fill="#F2F2F2"/>
<path d="M274.857 290.168L269.118 290.167L266.388 268.496H274.858L274.857 290.168Z" fill="#9E616A"/>
<path d="M276.321 295.614L257.817 295.613V295.384C257.817 293.514 258.576 291.72 259.926 290.398C261.277 289.076 263.109 288.333 265.019 288.333H265.019L268.399 285.822L274.706 288.333L276.321 288.333L276.321 295.614Z" fill="#2F2E41"/>
<path d="M325.434 290.168L319.696 290.167L316.966 268.496H325.436L325.434 290.168Z" fill="#9E616A"/>
<path d="M326.898 295.614L308.394 295.613V295.384C308.394 293.514 309.153 291.72 310.504 290.398C311.854 289.076 313.686 288.333 315.596 288.333H315.597L318.977 285.822L325.283 288.333L326.898 288.333L326.898 295.614Z" fill="#2F2E41"/>
<path d="M316.706 174.18L321.533 219.074C321.533 219.074 327.958 264.025 326.752 270.228C325.545 276.43 327.053 277.316 327.053 277.316L316.043 276.549C316.043 276.549 316.344 272.709 314.534 270.937C312.724 269.165 313.629 263.848 313.629 263.848L292.271 190.72L279.299 229.116C279.299 229.116 277.187 271.352 276.886 271.942C276.584 272.533 275.679 280.507 275.679 280.507H264.517C264.517 280.507 266.025 275.782 263.914 274.305C261.802 272.828 259.992 274.01 261.802 271.352C263.612 268.693 264.215 265.444 263.612 263.968C263.009 262.491 263.009 256.584 263.009 256.584C263.009 256.584 263.914 176.838 269.042 174.18C274.17 171.522 316.706 174.18 316.706 174.18Z" fill="#2F2E41"/>
<path d="M293.848 83.2814C300.404 83.2814 305.72 78.0775 305.72 71.6582C305.72 65.2389 300.404 60.0351 293.848 60.0351C287.291 60.0351 281.976 65.2389 281.976 71.6582C281.976 78.0775 287.291 83.2814 293.848 83.2814Z" fill="#9E616A"/>
<path d="M320.809 179.073C297.818 183.722 267.35 175.73 267.35 175.73L275.478 141.236L272.588 105.137C272.235 100.723 274.803 96.5847 278.798 95.1183L284.315 93.0954L288.875 86.704L301.899 87.1224L307.106 93.8324L311.215 95.9667L320.123 100.592L320.162 100.611V100.631L317.367 127.179L315.681 143.186C315.681 143.186 320.801 161.189 319.75 163.576C318.7 165.96 319.613 164.809 319.868 166.083C320.123 167.358 320.903 167.438 321.021 169.949C321.142 172.455 320.809 179.073 320.809 179.073Z" fill="#3F3D56"/>
<path d="M348.602 296H171.006C170.901 296 170.8 295.958 170.726 295.885C170.652 295.812 170.61 295.714 170.61 295.611C170.61 295.508 170.652 295.409 170.726 295.336C170.8 295.263 170.901 295.221 171.006 295.221H348.602C348.708 295.221 348.809 295.262 348.883 295.335C348.958 295.408 349 295.507 349 295.611C349 295.714 348.958 295.813 348.883 295.886C348.809 295.959 348.708 296 348.602 296Z" fill="#CCCCCC"/>
<path d="M293.27 82.7229C295.352 82.7021 297.429 82.5072 299.477 82.1403C301.505 81.6829 305.979 78.2958 307.199 76.2948C308.104 74.8081 308.648 72.5085 308.945 70.8413C309.345 68.6348 309.268 66.3706 308.718 64.1952C308.168 62.0198 307.158 59.9817 305.752 58.213C305.21 57.472 304.474 56.8882 303.621 56.5233C303.546 56.4966 303.468 56.4732 303.39 56.4535C302.153 56.1682 301.032 55.5277 300.171 54.6141C300.003 54.4291 299.823 54.2562 299.63 54.0966C298.663 53.3388 297.527 52.8157 296.314 52.5701C294.355 52.1094 291.552 52.6867 287.984 54.2875C286.191 55.0917 284.202 54.8673 282.668 54.582C282.582 54.568 282.494 54.5763 282.412 54.606C282.331 54.6357 282.258 54.6859 282.202 54.7515C281.569 55.3642 280.723 55.7197 279.833 55.7464C279.289 55.7836 278.736 56.5369 278.07 57.518C277.919 57.7407 277.743 58.0006 277.615 58.1592L277.589 57.8614L277.29 58.202C276.819 58.7372 276.494 59.3805 276.346 60.0718C276.197 60.7631 276.229 61.48 276.44 62.1557C276.651 62.8314 277.032 63.4439 277.55 63.9362C278.067 64.4285 278.704 64.7847 279.4 64.9714C279.952 65.1004 280.516 65.1738 281.083 65.1906C281.427 65.2122 281.783 65.2345 282.124 65.2836C283.222 65.4749 284.25 65.9415 285.108 66.638C285.966 67.3344 286.626 68.2368 287.021 69.2571C287.115 69.4929 287.262 69.7045 287.453 69.8756C287.643 70.0467 287.871 70.1727 288.119 70.2439C288.366 70.3151 288.628 70.3296 288.882 70.2863C289.137 70.2429 289.378 70.1429 289.586 69.9939C289.934 69.7148 290.345 69.5221 290.784 69.4321C291.224 69.3422 291.679 69.3577 292.112 69.4774C292.488 69.6698 292.785 69.9829 292.953 70.3642C293.156 70.7885 293.484 71.144 293.894 71.3852C295.294 72.0476 295.471 75.1343 295.043 77.722C294.63 80.2163 293.732 82.0358 292.859 82.1467C292.187 82.232 292.111 82.2808 292.065 82.3987L292.024 82.5043L292.103 82.6C292.478 82.7227 292.877 82.7646 293.27 82.7229Z" fill="#2F2E41"/>
<path d="M245.704 138.796C238.787 138.796 232.026 136.788 226.275 133.026C220.524 129.264 216.041 123.916 213.394 117.66C210.748 111.403 210.055 104.519 211.404 97.8775C212.754 91.2358 216.084 85.135 220.975 80.3466C225.866 75.5582 232.097 72.2973 238.881 70.9761C245.665 69.655 252.696 70.3331 259.086 72.9245C265.477 75.516 270.938 79.9045 274.781 85.5351C278.624 91.1656 280.675 97.7854 280.675 104.557C280.664 113.635 276.976 122.338 270.42 128.756C263.864 135.175 254.975 138.786 245.704 138.796ZM245.704 71.1655C238.958 71.1655 232.364 73.1239 226.755 76.793C221.147 80.4621 216.775 85.6772 214.194 91.7787C211.613 97.8802 210.937 104.594 212.253 111.072C213.569 117.549 216.817 123.499 221.587 128.169C226.357 132.839 232.434 136.019 239.05 137.307C245.666 138.596 252.523 137.934 258.755 135.407C264.987 132.88 270.314 128.6 274.062 123.109C277.809 117.617 279.809 111.161 279.809 104.557C279.799 95.7042 276.203 87.2167 269.809 80.9568C263.415 74.6968 254.746 71.1755 245.704 71.1655Z" fill="#3F3D56"/>
<path d="M124.99 68.0543C144.066 68.0543 159.529 52.9146 159.529 34.2389C159.529 15.5632 144.066 0.423553 124.99 0.423553C105.915 0.423553 90.4519 15.5632 90.4519 34.2389C90.4519 52.9146 105.915 68.0543 124.99 68.0543Z" fill="white"/>
<path d="M126.589 37.6883C132.809 37.6883 137.851 32.7515 137.851 26.6617C137.851 20.5719 132.809 15.6351 126.589 15.6351C120.369 15.6351 115.326 20.5719 115.326 26.6617C115.326 32.7515 120.369 37.6883 126.589 37.6883Z" fill="#FFB8B8"/>
<path d="M136.505 19.3773C136.505 19.3773 139.437 13.8889 132.986 13.39C132.986 13.39 127.486 8.50547 121.881 12.497C121.881 12.497 118.823 12.497 117.151 15.8847C117.151 15.8847 114.746 14.9917 114.218 17.3815C114.218 17.3815 112.458 22.3709 114.218 26.8614C115.977 31.3519 116.562 31.8509 116.562 31.8509C116.562 31.8509 115.327 26.2784 122.365 25.7795C129.404 25.2805 135.861 20.9636 136.447 26.452C137.034 31.9404 137.679 29.4611 137.679 29.4611C137.679 29.4611 143.25 21.6226 136.505 19.3773Z" fill="#2F2E41"/>
<path d="M150.965 56.724C144.981 63.39 136.56 67.4848 127.519 68.1245C118.479 68.7642 109.544 65.8974 102.643 60.1431L105.606 52.0499C106.275 50.6125 107.331 49.3806 108.662 48.4863C109.992 47.592 111.546 47.069 113.156 46.9735L115.041 46.8602L119.535 43.0655C119.535 43.0655 131.643 42.6422 131.464 42.4395L138.798 46.7588L138.792 46.729L141.676 46.9019C143.286 46.997 144.84 47.5198 146.17 48.4142C147.501 49.3086 148.557 50.5407 149.226 51.9784L150.965 56.724Z" fill="#6C63FF"/>
<path d="M124.99 68.4778C118.074 68.4779 111.313 66.4698 105.562 62.7076C99.8106 58.9453 95.3282 53.5979 92.6813 47.3416C90.0344 41.0853 89.3419 34.201 90.6913 27.5593C92.0406 20.9176 95.3713 14.8168 100.262 10.0284C105.153 5.23996 111.384 1.97902 118.168 0.657908C124.952 -0.663209 131.983 0.0148329 138.373 2.6063C144.763 5.19776 150.225 9.58624 154.068 15.2168C157.911 20.8474 159.962 27.4671 159.962 34.2389C159.951 43.3165 156.263 52.0193 149.707 58.4381C143.151 64.8569 134.262 68.4675 124.99 68.4778ZM124.99 0.847223C118.245 0.847221 111.651 2.80561 106.042 6.47474C100.434 10.1439 96.0622 15.3589 93.4808 21.4605C90.8994 27.562 90.224 34.276 91.54 40.7533C92.8559 47.2307 96.1042 53.1805 100.874 57.8504C105.644 62.5203 111.721 65.7006 118.337 66.989C124.953 68.2775 131.81 67.6162 138.042 65.0888C144.274 62.5615 149.601 58.2816 153.348 52.7904C157.096 47.2991 159.096 40.8432 159.096 34.2389C159.086 25.386 155.489 16.8985 149.096 10.6385C142.702 4.37853 134.033 0.857265 124.99 0.847223Z" fill="#3F3D56"/>
<path d="M44.3752 121.428C63.4503 121.428 78.9138 106.289 78.9138 87.613C78.9138 68.9373 63.4503 53.7976 44.3752 53.7976C25.3001 53.7976 9.83667 68.9373 9.83667 87.613C9.83667 106.289 25.3001 121.428 44.3752 121.428Z" fill="white"/>
<path d="M28.367 76.6129C29.7951 72.1567 33.0428 68.0697 37.5342 66.5632C42.0259 65.0568 48.603 67.3516 51.9797 70.6465C58.1565 76.6734 59.6638 97.3783 55.4202 103.921C54.5761 103.878 51.6635 103.845 50.8092 103.814L49.6006 99.8703V103.775C48.2396 103.734 46.8679 103.705 45.4856 103.69C40.8509 103.633 36.4189 101.82 33.1215 98.6309C29.8241 95.4416 27.918 91.125 27.804 86.5883C27.6935 82.2483 27.8042 78.369 28.367 76.6129Z" fill="#2F2E41"/>
<path d="M43.863 91.3817C49.2993 91.3817 53.7063 87.067 53.7063 81.7446C53.7063 76.4221 49.2993 72.1074 43.863 72.1074C38.4267 72.1074 34.0198 76.4221 34.0198 81.7446C34.0198 87.067 38.4267 91.3817 43.863 91.3817Z" fill="#9E616A"/>
<path d="M35.3679 73.2808L46.7015 67.7247C49.0186 68.7469 51.0141 70.3575 52.4812 72.3893C53.9482 74.4211 54.8334 76.8002 55.0448 79.2799L55.3273 82.5928L50.5814 81.4099L50.0614 77.1737L49.2555 81.0795L47.0653 80.5339L47.0861 73.9572L44.8945 80.5292L37.072 78.7696L35.3679 73.2808Z" fill="#2F2E41"/>
<path d="M70.005 109.991C64.0213 116.657 55.6002 120.751 46.5595 121.391C37.5189 122.031 28.5839 119.164 21.6833 113.41L24.6458 105.317C25.3153 103.879 26.3717 102.647 27.7019 101.753C29.0321 100.859 30.5859 100.336 32.1965 100.24L34.0812 100.127L38.5751 96.3321C38.5751 96.3321 50.6837 95.9088 50.504 95.7061L57.8386 100.025L57.8325 99.9956L60.7158 100.169C62.3266 100.264 63.8805 100.786 65.2108 101.681C66.541 102.575 67.5974 103.807 68.2665 105.245L70.005 109.991Z" fill="#6C63FF"/>
<path d="M44.3752 121.852C37.4586 121.852 30.6973 119.844 24.9463 116.082C19.1953 112.319 14.713 106.972 12.0661 100.716C9.4192 94.4593 8.72666 87.575 10.076 80.9333C11.4254 74.2916 14.7561 68.1908 19.6469 63.4024C24.5377 58.614 30.7689 55.3531 37.5527 54.032C44.3364 52.7108 51.368 53.3889 57.7581 55.9804C64.1483 58.5718 69.61 62.9603 73.4527 68.5909C77.2954 74.2214 79.3464 80.8412 79.3464 87.613C79.3359 96.6906 75.648 105.393 69.0919 111.812C62.5359 118.231 53.6469 121.842 44.3752 121.852ZM44.3752 54.2213C37.6297 54.2213 31.0357 56.1797 25.427 59.8488C19.8184 63.5179 15.4469 68.733 12.8655 74.8345C10.2842 80.9361 9.60875 87.65 10.9247 94.1274C12.2407 100.605 15.489 106.555 20.2588 111.224C25.0285 115.894 31.1056 119.075 37.7215 120.363C44.3374 121.652 51.1949 120.99 57.427 118.463C63.659 115.936 68.9856 111.656 72.7332 106.164C76.4808 100.673 78.4811 94.2172 78.4811 87.613C78.4708 78.76 74.8742 70.2726 68.4804 64.0126C62.0865 57.7526 53.4175 54.2313 44.3752 54.2213Z" fill="#3F3D56"/>
<path d="M277.602 122.1L272.373 113.222C265.6 114.064 252.561 122.532 252.561 122.532L227.339 129.288C226.566 129.047 225.741 129.009 224.948 129.179C224.155 129.348 223.421 129.72 222.821 130.255C222.221 130.791 221.776 131.471 221.53 132.229C221.284 132.986 221.246 133.794 221.421 134.57C221.595 135.347 221.975 136.064 222.523 136.651C223.07 137.238 223.766 137.673 224.54 137.913C225.314 138.153 226.139 138.189 226.932 138.017C227.725 137.845 228.457 137.472 229.056 136.936L261.405 132.804L277.602 122.1Z" fill="#9E616A"/>
<path d="M275.802 123.709L287.509 114.109L289.212 106.382C289.541 104.864 289.429 103.286 288.89 101.826C288.351 100.367 287.405 99.0842 286.161 98.1233C284.464 96.8317 282.33 96.219 280.19 96.4089C278.05 96.5988 276.064 97.5773 274.633 99.1464C270.295 103.909 265.417 110.486 266.804 114.774L266.818 114.818L275.802 123.709Z" fill="#3F3D56"/>
<path d="M96.3743 157.06H52.3875C51.2087 157.058 50.0785 156.599 49.2449 155.783C48.4114 154.967 47.9425 153.86 47.9412 152.706V126.182C47.9425 125.028 48.4114 123.921 49.2449 123.105C50.0785 122.289 51.2087 121.83 52.3875 121.829H96.3743C97.5531 121.83 98.6833 122.289 99.5169 123.105C100.35 123.921 100.819 125.028 100.821 126.182V152.706C100.819 153.86 100.35 154.967 99.5169 155.783C98.6833 156.599 97.5531 157.058 96.3743 157.06Z" fill="#E6E6E6"/>
<path d="M78.8974 153.643H55.4793C54.3753 153.642 53.3168 153.212 52.5361 152.448C51.7554 151.683 51.3162 150.647 51.3149 149.566V129.322C51.3162 128.241 51.7554 127.205 52.5361 126.441C53.3168 125.676 54.3753 125.246 55.4793 125.245H93.2822C94.3863 125.246 95.4447 125.676 96.2254 126.441C97.0061 127.205 97.4452 128.241 97.4464 129.322V135.483C97.4408 140.298 95.4847 144.914 92.0073 148.318C88.5299 151.723 83.8152 153.638 78.8974 153.643Z" fill="white"/>
<path d="M89.511 136.33H59.2503C58.9886 136.33 58.7376 136.228 58.5525 136.047C58.3674 135.866 58.2634 135.62 58.2634 135.364C58.2634 135.108 58.3674 134.862 58.5525 134.681C58.7376 134.5 58.9886 134.398 59.2503 134.398H89.511C89.7728 134.398 90.0238 134.5 90.2089 134.681C90.394 134.862 90.4979 135.108 90.4979 135.364C90.4979 135.62 90.394 135.866 90.2089 136.047C90.0238 136.228 89.7728 136.33 89.511 136.33Z" fill="#6C63FF"/>
<path d="M63.9839 140.148H59.2504C58.9886 140.148 58.7376 140.047 58.5525 139.865C58.3674 139.684 58.2634 139.438 58.2634 139.182C58.2634 138.926 58.3674 138.68 58.5525 138.499C58.7376 138.318 58.9886 138.216 59.2504 138.216H63.9839C64.2457 138.216 64.4967 138.318 64.6818 138.499C64.8669 138.68 64.9709 138.926 64.9709 139.182C64.9709 139.438 64.8669 139.684 64.6818 139.865C64.4967 140.047 64.2457 140.148 63.9839 140.148Z" fill="#6C63FF"/>
<path d="M72.3678 143.966H59.2505C58.9891 143.966 58.7386 143.864 58.554 143.683C58.3693 143.502 58.2656 143.256 58.2656 143C58.2656 142.744 58.3693 142.499 58.554 142.318C58.7386 142.136 58.9891 142.034 59.2505 142.034H72.3678C72.6292 142.034 72.8797 142.136 73.0643 142.318C73.249 142.499 73.3527 142.744 73.3527 143C73.3527 143.256 73.249 143.502 73.0643 143.683C72.8797 143.864 72.6292 143.966 72.3678 143.966Z" fill="#6C63FF"/>
<path d="M46.406 130.41C51.545 130.41 55.7109 126.332 55.7109 121.3C55.7109 116.269 51.545 112.19 46.406 112.19C41.267 112.19 37.1011 116.269 37.1011 121.3C37.1011 126.332 41.267 130.41 46.406 130.41Z" fill="#3F3D56"/>
<path d="M210.597 36.7561H166.61C165.432 36.7548 164.301 36.2957 163.468 35.4796C162.634 34.6635 162.165 33.557 162.164 32.4028V5.87834C162.165 4.72418 162.634 3.61767 163.468 2.80155C164.301 1.98544 165.432 1.52636 166.61 1.52505H210.597C211.776 1.52636 212.906 1.98543 213.74 2.80155C214.573 3.61766 215.042 4.72418 215.044 5.87834V32.4028C215.042 33.557 214.573 34.6635 213.74 35.4796C212.906 36.2957 211.776 36.7548 210.597 36.7561Z" fill="#E6E6E6"/>
<path d="M193.121 33.3395H169.702C168.598 33.3383 167.54 32.9084 166.759 32.1441C165.979 31.3798 165.539 30.3435 165.538 29.2626V9.01851C165.539 7.93757 165.979 6.90127 166.759 6.13695C167.54 5.37264 168.598 4.94272 169.702 4.94153H207.505C208.609 4.94273 209.668 5.37265 210.449 6.13697C211.229 6.9013 211.668 7.9376 211.67 9.01851V15.1792C211.664 19.994 209.708 24.61 206.23 28.0145C202.753 31.4191 198.038 33.3341 193.121 33.3395Z" fill="white"/>
<path d="M203.734 16.0267H173.473C173.212 16.0267 172.961 15.9249 172.776 15.7437C172.591 15.5625 172.487 15.3167 172.487 15.0604C172.487 14.8042 172.591 14.5584 172.776 14.3772C172.961 14.196 173.212 14.0942 173.473 14.0942H203.734C203.996 14.0942 204.247 14.196 204.432 14.3772C204.617 14.5584 204.721 14.8042 204.721 15.0604C204.721 15.3167 204.617 15.5625 204.432 15.7437C204.247 15.9249 203.996 16.0267 203.734 16.0267Z" fill="#6C63FF"/>
<path d="M178.207 19.8448H173.474C173.212 19.8448 172.961 19.743 172.776 19.5618C172.591 19.3805 172.487 19.1348 172.487 18.8785C172.487 18.6222 172.591 18.3764 172.776 18.1952C172.961 18.014 173.212 17.9122 173.474 17.9122H178.207C178.469 17.9122 178.72 18.014 178.905 18.1952C179.09 18.3764 179.194 18.6222 179.194 18.8785C179.194 19.1348 179.09 19.3805 178.905 19.5618C178.72 19.743 178.469 19.8448 178.207 19.8448Z" fill="#6C63FF"/>
<path d="M186.591 23.6629H173.474C173.212 23.6623 172.962 23.5603 172.777 23.3791C172.592 23.198 172.489 22.9525 172.489 22.6966C172.489 22.4406 172.592 22.1952 172.777 22.014C172.962 21.8329 173.212 21.7308 173.474 21.7303H186.591C186.853 21.7303 187.104 21.8321 187.289 22.0133C187.474 22.1945 187.578 22.4403 187.578 22.6966C187.578 22.9528 187.474 23.1986 187.289 23.3798C187.104 23.5611 186.853 23.6629 186.591 23.6629Z" fill="#6C63FF"/>
<path d="M160.629 41.8772C165.768 41.8772 169.934 37.7985 169.934 32.7671C169.934 27.7357 165.768 23.657 160.629 23.657C155.49 23.657 151.324 27.7357 151.324 32.7671C151.324 37.7985 155.49 41.8772 160.629 41.8772Z" fill="#3F3D56"/>
</g>
<defs>
<clipPath id="clip0_72_98">
<rect width="349" height="296" fill="white"/>
</clipPath>
</defs>
</svg>
