<svg width="494" height="322" viewBox="0 0 494 322" fill="none" xmlns="http://www.w3.org/2000/svg">
<g clip-path="url(#clip0_72_178)">
<path d="M493.286 319.531H0.713873C0.524542 319.531 0.342965 319.463 0.209088 319.342C0.0752108 319.221 0 319.057 0 318.886C0 318.716 0.0752108 318.552 0.209088 318.431C0.342965 318.31 0.524542 318.242 0.713873 318.242H493.286C493.475 318.242 493.657 318.31 493.791 318.431C493.925 318.552 494 318.716 494 318.886C494 319.057 493.925 319.221 493.791 319.342C493.657 319.463 493.475 319.531 493.286 319.531Z" fill="#CCCCCC"/>
<path d="M444.532 207.188H154.699C153.469 207.188 152.288 207.629 151.418 208.414C150.548 209.2 150.059 210.265 150.059 211.375C150.059 212.486 150.548 213.551 151.418 214.336C152.288 215.121 153.469 215.562 154.699 215.562H162.909V315.729C162.909 316.839 163.398 317.904 164.268 318.69C165.138 319.475 166.318 319.916 167.549 319.916C168.78 319.916 169.96 319.475 170.83 318.69C171.7 317.904 172.189 316.839 172.189 315.729L172.26 215.562H426.328V315.729C426.328 316.839 426.817 317.904 427.687 318.69C428.557 319.475 429.737 319.916 430.968 319.916C432.199 319.916 433.379 319.475 434.249 318.69C435.119 317.904 435.608 316.839 435.608 315.729V217.77L436.958 215.562H444.532C445.762 215.562 446.943 215.121 447.813 214.336C448.683 213.551 449.172 212.486 449.172 211.375C449.172 210.265 448.683 209.2 447.813 208.414C446.943 207.629 445.762 207.188 444.532 207.188Z" fill="#CCCCCC"/>
<path d="M315.385 209.379H227.591C225.891 209.378 224.262 208.768 223.06 207.683C221.858 206.598 221.181 205.128 221.179 203.594V159.978C221.181 158.444 221.858 156.974 223.06 155.889C224.262 154.804 225.891 154.194 227.591 154.193H315.385C317.085 154.194 318.714 154.804 319.916 155.889C321.118 156.974 321.795 158.444 321.797 159.978V203.594C321.795 205.128 321.118 206.598 319.916 207.683C318.714 208.768 317.085 209.378 315.385 209.379Z" fill="#3F3D56"/>
<path d="M315.384 158.645H227.592C227.2 158.646 226.825 158.787 226.548 159.037C226.271 159.287 226.115 159.625 226.114 159.979V203.595C226.115 203.948 226.271 204.287 226.548 204.537C226.825 204.787 227.2 204.927 227.592 204.928H315.384C315.776 204.927 316.151 204.787 316.428 204.537C316.705 204.287 316.861 203.948 316.862 203.595V159.979C316.861 159.625 316.705 159.287 316.428 159.037C316.151 158.787 315.776 158.646 315.384 158.645Z" fill="white"/>
<path d="M278.976 189.525C278.976 189.525 268.466 187.34 262.686 191.346C256.905 195.353 270.043 204.458 270.043 204.458L278.976 189.525Z" fill="#2F2E41"/>
<path d="M272.003 185.396C277.478 185.396 281.916 181.391 281.916 176.451C281.916 171.51 277.478 167.505 272.003 167.505C266.528 167.505 262.089 171.51 262.089 176.451C262.089 181.391 266.528 185.396 272.003 185.396Z" fill="#A0616A"/>
<path d="M264.337 163.893C264.998 162.881 265.956 162.053 267.106 161.501C268.256 160.949 269.552 160.694 270.852 160.766C272.212 160.919 273.539 161.255 274.789 161.76L281.27 164.041C282.947 164.631 284.784 165.354 285.511 166.84C286.187 168.219 285.683 169.811 285.173 171.247L282.748 178.071C282.48 176.526 282.019 175.014 281.374 173.563C280.719 172.102 279.535 170.884 278.016 170.108C276.332 169.329 274.348 169.345 272.458 169.427C269.782 169.543 266.872 169.85 264.97 171.554C263.961 172.521 263.277 173.727 262.997 175.032C262.722 176.329 262.583 177.647 262.583 178.969C261.486 177.266 260.561 175.478 259.821 173.625C259.212 172.245 258.865 170.783 258.795 169.3C258.731 167.803 259.281 166.338 260.34 165.185C260.877 164.622 261.578 164.205 262.364 163.982C263.15 163.759 263.989 163.738 264.788 163.922L264.337 163.893Z" fill="#2F2E41"/>
<path d="M295.674 197.282C295.581 196.98 295.391 196.709 295.128 196.504C294.865 196.299 294.541 196.169 294.196 196.129C294.173 196.115 294.15 196.102 294.125 196.09L279.325 188.606C278.903 188.393 278.405 188.334 277.936 188.443C277.467 188.552 277.062 188.82 276.807 189.191L272.759 195.105L266.662 189.604L266.566 189.516C266.253 189.234 265.84 189.06 265.399 189.025C264.958 188.991 264.518 189.097 264.155 189.326L251.992 197.012C251.971 197.012 251.949 197.018 251.928 197.018C251.346 197.106 250.814 197.37 250.421 197.767C250.028 198.164 249.796 198.67 249.765 199.202L249.451 204.928H298.023L295.674 197.282Z" fill="#6C63FF"/>
<path d="M322.783 204.039H313.412C313.412 203.803 313.308 203.576 313.123 203.409C312.938 203.242 312.687 203.149 312.425 203.149H309.466C309.204 203.149 308.954 203.242 308.769 203.409C308.584 203.576 308.48 203.803 308.48 204.039H305.52C305.52 203.803 305.416 203.576 305.231 203.409C305.046 203.242 304.795 203.149 304.534 203.149H301.575C301.313 203.149 301.062 203.242 300.877 203.409C300.692 203.576 300.588 203.803 300.588 204.039H297.629C297.629 203.803 297.525 203.576 297.34 203.409C297.155 203.242 296.904 203.149 296.642 203.149H293.683C293.421 203.149 293.17 203.242 292.985 203.409C292.8 203.576 292.697 203.803 292.697 204.039H289.737C289.737 203.803 289.633 203.576 289.448 203.409C289.263 203.242 289.012 203.149 288.751 203.149H285.791C285.53 203.149 285.279 203.242 285.094 203.409C284.909 203.576 284.805 203.803 284.805 204.039H281.846C281.846 203.803 281.742 203.576 281.557 203.409C281.372 203.242 281.121 203.149 280.859 203.149H277.9C277.638 203.149 277.387 203.242 277.202 203.409C277.017 203.576 276.914 203.803 276.914 204.039H273.954C273.954 203.803 273.85 203.576 273.665 203.409C273.48 203.242 273.229 203.149 272.968 203.149H270.008C269.747 203.149 269.496 203.242 269.311 203.409C269.126 203.576 269.022 203.803 269.022 204.039H266.063C266.063 203.803 265.959 203.576 265.774 203.409C265.589 203.242 265.338 203.149 265.076 203.149H262.117C261.855 203.149 261.604 203.242 261.419 203.409C261.234 203.576 261.13 203.803 261.13 204.039H258.171C258.171 203.803 258.067 203.576 257.882 203.409C257.697 203.242 257.446 203.149 257.185 203.149H254.225C253.964 203.149 253.713 203.242 253.528 203.409C253.343 203.576 253.239 203.803 253.239 204.039H250.28C250.28 203.803 250.176 203.576 249.991 203.409C249.806 203.242 249.555 203.149 249.293 203.149H246.334C246.072 203.149 245.821 203.242 245.636 203.409C245.451 203.576 245.347 203.803 245.347 204.039H242.388C242.388 203.803 242.284 203.576 242.099 203.409C241.914 203.242 241.663 203.149 241.402 203.149H238.442C238.181 203.149 237.93 203.242 237.745 203.409C237.56 203.576 237.456 203.803 237.456 204.039H234.496C234.496 203.803 234.393 203.576 234.208 203.409C234.023 203.242 233.772 203.149 233.51 203.149H230.551C230.289 203.149 230.038 203.242 229.853 203.409C229.668 203.576 229.564 203.803 229.564 204.039H220.193C219.409 204.04 218.657 204.322 218.103 204.822C217.549 205.323 217.238 206.002 217.238 206.709C217.238 207.417 217.549 208.095 218.103 208.596C218.657 209.096 219.409 209.378 220.193 209.379H322.783C323.568 209.379 324.321 209.098 324.876 208.597C325.431 208.096 325.742 207.417 325.742 206.709C325.742 206.001 325.431 205.322 324.876 204.821C324.321 204.32 323.568 204.039 322.783 204.039Z" fill="#3F3D56"/>
<path d="M204.938 188.531V206.262H155.708C154.389 206.304 153.074 206.105 151.842 205.678C150.61 205.251 149.486 204.605 148.536 203.778C147.587 202.95 146.832 201.959 146.316 200.863C145.801 199.766 145.535 198.588 145.535 197.397C145.535 196.206 145.801 195.027 146.316 193.931C146.832 192.835 147.587 191.843 148.536 191.016C149.486 190.189 150.61 189.542 151.842 189.115C153.074 188.689 154.389 188.49 155.708 188.531H204.938Z" fill="#F2F2F2"/>
<path d="M206.147 206.126C206.147 206.307 206.067 206.48 205.926 206.608C205.784 206.736 205.592 206.808 205.391 206.808H154.831C152.085 206.808 149.451 205.823 147.509 204.071C145.568 202.319 144.477 199.943 144.477 197.465C144.477 194.987 145.568 192.611 147.509 190.859C149.451 189.106 152.085 188.122 154.831 188.122H205.391C205.592 188.122 205.784 188.194 205.926 188.322C206.068 188.45 206.147 188.623 206.147 188.804C206.147 188.985 206.068 189.158 205.926 189.286C205.784 189.414 205.592 189.486 205.391 189.486H154.831C152.487 189.488 150.24 190.329 148.583 191.826C146.927 193.322 145.996 195.35 145.996 197.465C145.996 199.58 146.927 201.608 148.583 203.104C150.24 204.601 152.487 205.442 154.831 205.444H205.391C205.592 205.444 205.784 205.516 205.926 205.644C206.067 205.772 206.147 205.945 206.147 206.126Z" fill="#6C63FF"/>
<path d="M204.938 192.623H152.035C152.015 192.623 151.995 192.62 151.976 192.613C151.958 192.606 151.941 192.596 151.927 192.583C151.913 192.571 151.902 192.556 151.894 192.539C151.886 192.522 151.882 192.505 151.882 192.487C151.882 192.469 151.886 192.451 151.894 192.434C151.902 192.418 151.913 192.403 151.927 192.39C151.941 192.377 151.958 192.367 151.976 192.36C151.995 192.354 152.015 192.35 152.035 192.35H204.938C204.978 192.351 205.016 192.365 205.044 192.391C205.072 192.416 205.088 192.451 205.088 192.487C205.088 192.523 205.072 192.557 205.044 192.583C205.016 192.608 204.978 192.623 204.938 192.623Z" fill="#CCCCCC"/>
<path d="M204.938 195.896H152.035C152.015 195.897 151.995 195.893 151.976 195.886C151.958 195.88 151.941 195.87 151.927 195.857C151.913 195.844 151.902 195.829 151.894 195.812C151.886 195.796 151.882 195.778 151.882 195.76C151.882 195.742 151.886 195.724 151.894 195.708C151.902 195.691 151.913 195.676 151.927 195.663C151.941 195.651 151.958 195.641 151.976 195.634C151.995 195.627 152.015 195.624 152.035 195.624H204.938C204.978 195.624 205.016 195.638 205.044 195.664C205.072 195.69 205.088 195.724 205.088 195.76C205.088 195.796 205.072 195.831 205.044 195.856C205.016 195.882 204.978 195.896 204.938 195.896Z" fill="#CCCCCC"/>
<path d="M204.938 199.17H152.035C152.015 199.17 151.995 199.167 151.976 199.16C151.958 199.153 151.941 199.143 151.927 199.13C151.913 199.118 151.902 199.103 151.894 199.086C151.886 199.069 151.882 199.051 151.882 199.033C151.882 199.015 151.886 198.998 151.894 198.981C151.902 198.964 151.913 198.949 151.927 198.937C151.941 198.924 151.958 198.914 151.976 198.907C151.995 198.9 152.015 198.897 152.035 198.897H204.938C204.978 198.897 205.016 198.912 205.044 198.937C205.072 198.963 205.088 198.997 205.088 199.033C205.088 199.069 205.072 199.104 205.044 199.13C205.016 199.155 204.978 199.17 204.938 199.17Z" fill="#CCCCCC"/>
<path d="M204.938 202.443H152.035C152.015 202.443 151.995 202.44 151.976 202.433C151.958 202.426 151.941 202.416 151.927 202.404C151.913 202.391 151.902 202.376 151.894 202.359C151.886 202.343 151.882 202.325 151.882 202.307C151.882 202.289 151.886 202.271 151.894 202.254C151.902 202.238 151.913 202.223 151.927 202.21C151.941 202.197 151.958 202.187 151.976 202.181C151.995 202.174 152.015 202.17 152.035 202.17H204.938C204.978 202.171 205.016 202.185 205.044 202.211C205.072 202.236 205.088 202.271 205.088 202.307C205.088 202.343 205.072 202.377 205.044 202.403C205.016 202.429 204.978 202.443 204.938 202.443Z" fill="#CCCCCC"/>
<path d="M195.658 169.851V187.582H146.427C145.108 187.623 143.794 187.424 142.562 186.998C141.33 186.571 140.205 185.924 139.256 185.097C138.307 184.27 137.552 183.278 137.036 182.182C136.52 181.086 136.255 179.907 136.255 178.716C136.255 177.525 136.52 176.347 137.036 175.25C137.552 174.154 138.307 173.163 139.256 172.335C140.205 171.508 141.33 170.862 142.562 170.435C143.794 170.008 145.108 169.809 146.427 169.851H195.658Z" fill="#F2F2F2"/>
<path d="M196.867 187.445C196.867 187.626 196.787 187.8 196.645 187.927C196.504 188.055 196.312 188.127 196.111 188.127H145.55C144.191 188.127 142.844 187.886 141.588 187.416C140.332 186.946 139.191 186.258 138.229 185.391C137.268 184.523 136.505 183.493 135.985 182.36C135.464 181.226 135.197 180.011 135.197 178.784C135.197 177.557 135.464 176.343 135.985 175.209C136.505 174.075 137.268 173.046 138.229 172.178C139.191 171.31 140.332 170.622 141.588 170.153C142.844 169.683 144.191 169.442 145.55 169.442H196.111C196.312 169.442 196.504 169.513 196.646 169.641C196.787 169.769 196.867 169.943 196.867 170.123C196.867 170.304 196.787 170.478 196.646 170.606C196.504 170.734 196.312 170.805 196.111 170.805H145.55C143.207 170.807 140.96 171.649 139.303 173.145C137.647 174.641 136.716 176.669 136.716 178.784C136.716 180.899 137.647 182.928 139.303 184.424C140.96 185.92 143.207 186.761 145.55 186.763H196.111C196.312 186.763 196.504 186.835 196.645 186.963C196.787 187.091 196.867 187.264 196.867 187.445Z" fill="#3F3D56"/>
<path d="M195.657 173.942H142.754C142.734 173.943 142.714 173.939 142.696 173.932C142.677 173.926 142.661 173.915 142.646 173.903C142.632 173.89 142.621 173.875 142.613 173.858C142.606 173.842 142.602 173.824 142.602 173.806C142.602 173.788 142.606 173.77 142.613 173.754C142.621 173.737 142.632 173.722 142.646 173.709C142.661 173.697 142.677 173.687 142.696 173.68C142.714 173.673 142.734 173.67 142.754 173.67H195.657C195.697 173.67 195.736 173.684 195.764 173.71C195.792 173.735 195.808 173.77 195.808 173.806C195.808 173.842 195.792 173.877 195.764 173.902C195.736 173.928 195.697 173.942 195.657 173.942Z" fill="#CCCCCC"/>
<path d="M195.657 177.216H142.754C142.734 177.216 142.714 177.213 142.696 177.206C142.677 177.199 142.661 177.189 142.646 177.176C142.632 177.164 142.621 177.148 142.613 177.132C142.606 177.115 142.602 177.097 142.602 177.079C142.602 177.061 142.606 177.044 142.613 177.027C142.621 177.01 142.632 176.995 142.646 176.983C142.661 176.97 142.677 176.96 142.696 176.953C142.714 176.946 142.734 176.943 142.754 176.943H195.657C195.697 176.943 195.736 176.958 195.764 176.983C195.792 177.009 195.808 177.043 195.808 177.079C195.808 177.115 195.792 177.15 195.764 177.176C195.736 177.201 195.697 177.216 195.657 177.216Z" fill="#CCCCCC"/>
<path d="M195.657 180.489H142.754C142.734 180.489 142.714 180.486 142.696 180.479C142.677 180.472 142.661 180.462 142.646 180.45C142.632 180.437 142.621 180.422 142.613 180.405C142.606 180.389 142.602 180.371 142.602 180.353C142.602 180.335 142.606 180.317 142.613 180.3C142.621 180.284 142.632 180.269 142.646 180.256C142.661 180.243 142.677 180.233 142.696 180.227C142.714 180.22 142.734 180.216 142.754 180.216H195.657C195.697 180.217 195.736 180.231 195.764 180.257C195.792 180.282 195.808 180.317 195.808 180.353C195.808 180.389 195.792 180.423 195.764 180.449C195.736 180.475 195.697 180.489 195.657 180.489Z" fill="#CCCCCC"/>
<path d="M195.657 183.763H142.754C142.734 183.763 142.714 183.759 142.696 183.753C142.677 183.746 142.661 183.736 142.646 183.723C142.632 183.71 142.621 183.695 142.613 183.679C142.606 183.662 142.602 183.644 142.602 183.626C142.602 183.608 142.606 183.59 142.613 183.574C142.621 183.557 142.632 183.542 142.646 183.529C142.661 183.517 142.677 183.507 142.696 183.5C142.714 183.493 142.734 183.49 142.754 183.49H195.657C195.697 183.49 195.736 183.505 195.764 183.53C195.792 183.556 195.808 183.59 195.808 183.626C195.808 183.662 195.792 183.697 195.764 183.722C195.736 183.748 195.697 183.762 195.657 183.763Z" fill="#CCCCCC"/>
<path d="M252.927 269.286V253.826C252.927 253.143 252.626 252.488 252.091 252.004C251.555 251.521 250.829 251.25 250.072 251.25H185.109C184.352 251.25 183.626 251.521 183.09 252.004C182.555 252.488 182.254 253.143 182.254 253.826V269.286H252.927Z" fill="#CCCCCC"/>
<path d="M252.927 275.084H182.254V295.053H252.927V275.084Z" fill="#CCCCCC"/>
<path d="M182.254 300.85V316.31C182.254 316.993 182.555 317.648 183.09 318.132C183.626 318.615 184.352 318.886 185.109 318.886H250.072C250.829 318.886 251.555 318.615 252.091 318.132C252.626 317.648 252.927 316.993 252.927 316.31V300.85H182.254Z" fill="#CCCCCC"/>
<path d="M217.234 262.845C218.416 262.845 219.375 261.979 219.375 260.912C219.375 259.845 218.416 258.98 217.234 258.98C216.051 258.98 215.092 259.845 215.092 260.912C215.092 261.979 216.051 262.845 217.234 262.845Z" fill="white"/>
<path d="M217.234 288.611C218.416 288.611 219.375 287.746 219.375 286.678C219.375 285.611 218.416 284.746 217.234 284.746C216.051 284.746 215.092 285.611 215.092 286.678C215.092 287.746 216.051 288.611 217.234 288.611Z" fill="white"/>
<path d="M217.349 313.832C218.531 313.832 219.49 312.966 219.49 311.899C219.49 310.832 218.531 309.967 217.349 309.967C216.166 309.967 215.207 310.832 215.207 311.899C215.207 312.966 216.166 313.832 217.349 313.832Z" fill="white"/>
<path d="M244.915 233.622V251.353H195.684C194.366 251.395 193.051 251.196 191.819 250.769C190.587 250.342 189.462 249.696 188.513 248.869C187.564 248.041 186.809 247.05 186.293 245.954C185.777 244.858 185.512 243.679 185.512 242.488C185.512 241.297 185.777 240.118 186.293 239.022C186.809 237.926 187.564 236.934 188.513 236.107C189.462 235.28 190.587 234.633 191.819 234.207C193.051 233.78 194.366 233.581 195.684 233.622H244.915Z" fill="#F2F2F2"/>
<path d="M246.124 251.217C246.124 251.398 246.044 251.571 245.903 251.699C245.761 251.827 245.569 251.899 245.368 251.899H194.808C193.447 251.9 192.1 251.659 190.843 251.19C189.585 250.721 188.443 250.033 187.481 249.165C186.518 248.298 185.755 247.267 185.234 246.133C184.713 244.999 184.445 243.784 184.445 242.556C184.445 241.329 184.713 240.113 185.234 238.979C185.755 237.845 186.518 236.815 187.481 235.947C188.443 235.079 189.585 234.391 190.843 233.922C192.1 233.453 193.447 233.212 194.808 233.213H245.368C245.569 233.213 245.761 233.285 245.903 233.413C246.044 233.541 246.124 233.714 246.124 233.895C246.124 234.076 246.044 234.25 245.903 234.377C245.761 234.505 245.569 234.577 245.368 234.577H194.808C192.464 234.579 190.217 235.421 188.56 236.917C186.904 238.413 185.973 240.441 185.973 242.556C185.973 244.671 186.904 246.699 188.56 248.195C190.217 249.692 192.464 250.533 194.808 250.535H245.368C245.569 250.535 245.761 250.607 245.903 250.735C246.044 250.863 246.124 251.036 246.124 251.217Z" fill="#3F3D56"/>
<path d="M244.915 237.714H192.011C191.991 237.714 191.972 237.711 191.953 237.704C191.935 237.697 191.918 237.687 191.904 237.675C191.89 237.662 191.878 237.647 191.871 237.63C191.863 237.614 191.859 237.596 191.859 237.578C191.859 237.56 191.863 237.542 191.871 237.525C191.878 237.509 191.89 237.494 191.904 237.481C191.918 237.468 191.935 237.458 191.953 237.451C191.972 237.445 191.991 237.441 192.011 237.441H244.915C244.955 237.442 244.993 237.456 245.021 237.482C245.049 237.507 245.065 237.542 245.065 237.578C245.065 237.614 245.049 237.648 245.021 237.674C244.993 237.699 244.955 237.714 244.915 237.714Z" fill="#CCCCCC"/>
<path d="M244.915 240.988H192.011C191.991 240.988 191.972 240.984 191.953 240.977C191.935 240.971 191.918 240.961 191.904 240.948C191.89 240.935 191.878 240.92 191.871 240.904C191.863 240.887 191.859 240.869 191.859 240.851C191.859 240.833 191.863 240.815 191.871 240.799C191.878 240.782 191.89 240.767 191.904 240.754C191.918 240.742 191.935 240.732 191.953 240.725C191.972 240.718 191.991 240.715 192.011 240.715H244.915C244.955 240.715 244.993 240.73 245.021 240.755C245.049 240.781 245.065 240.815 245.065 240.851C245.065 240.887 245.049 240.922 245.021 240.947C244.993 240.973 244.955 240.987 244.915 240.988Z" fill="#CCCCCC"/>
<path d="M244.915 244.261H192.011C191.991 244.261 191.972 244.258 191.953 244.251C191.935 244.244 191.918 244.234 191.904 244.221C191.89 244.209 191.878 244.194 191.871 244.177C191.863 244.16 191.859 244.143 191.859 244.125C191.859 244.107 191.863 244.089 191.871 244.072C191.878 244.056 191.89 244.04 191.904 244.028C191.918 244.015 191.935 244.005 191.953 243.998C191.972 243.992 191.991 243.988 192.011 243.988H244.915C244.955 243.988 244.993 244.003 245.021 244.028C245.049 244.054 245.065 244.089 245.065 244.125C245.065 244.161 245.049 244.195 245.021 244.221C244.993 244.246 244.955 244.261 244.915 244.261Z" fill="#CCCCCC"/>
<path d="M244.915 247.534H192.011C191.991 247.534 191.972 247.531 191.953 247.524C191.935 247.517 191.918 247.507 191.904 247.495C191.89 247.482 191.878 247.467 191.871 247.45C191.863 247.434 191.859 247.416 191.859 247.398C191.859 247.38 191.863 247.362 191.871 247.346C191.878 247.329 191.89 247.314 191.904 247.301C191.918 247.289 191.935 247.278 191.953 247.272C191.972 247.265 191.991 247.261 192.011 247.262H244.915C244.955 247.262 244.993 247.276 245.021 247.302C245.049 247.327 245.065 247.362 245.065 247.398C245.065 247.434 245.049 247.469 245.021 247.494C244.993 247.52 244.955 247.534 244.915 247.534Z" fill="#CCCCCC"/>
<path d="M178.547 117.895V4.845C178.548 3.56048 179.115 2.32898 180.121 1.42069C181.128 0.51239 182.493 0.00146111 183.916 0H282.951C284.374 0.00146961 285.739 0.512401 286.746 1.4207C287.752 2.32899 288.318 3.56048 288.32 4.845V117.895C288.318 119.179 287.752 120.411 286.746 121.319C285.739 122.227 284.374 122.738 282.951 122.74H183.916C182.493 122.738 181.128 122.227 180.121 121.319C179.115 120.411 178.548 119.179 178.547 117.895ZM183.916 1.07667C182.809 1.07779 181.748 1.47517 180.965 2.18162C180.182 2.88808 179.741 3.84592 179.74 4.845V117.895C179.741 118.894 180.182 119.852 180.965 120.558C181.748 121.265 182.809 121.662 183.916 121.663H282.951C284.058 121.662 285.119 121.265 285.902 120.558C286.685 119.852 287.126 118.894 287.127 117.895V4.845C287.126 3.84592 286.685 2.88808 285.902 2.18162C285.119 1.47517 284.058 1.07779 282.951 1.07667H183.916Z" fill="#E6E6E6"/>
<path d="M238.987 51.9177V28.705C238.988 28.0628 239.271 27.447 239.774 26.9929C240.278 26.5387 240.96 26.2832 241.672 26.2825H263.471C264.183 26.2832 264.865 26.5387 265.369 26.9929C265.872 27.447 266.155 28.0628 266.156 28.705V51.9177C266.155 52.56 265.872 53.1758 265.369 53.6299C264.865 54.0841 264.183 54.3395 263.471 54.3402H241.672C240.96 54.3395 240.278 54.0841 239.774 53.6299C239.271 53.1758 238.988 52.56 238.987 51.9177Z" fill="#6C63FF"/>
<path d="M196.629 62.6844V39.4717C196.63 38.8295 196.913 38.2137 197.416 37.7595C197.919 37.3054 198.602 37.0499 199.314 37.0492H221.113C221.825 37.0499 222.507 37.3054 223.011 37.7595C223.514 38.2137 223.797 38.8295 223.798 39.4717V62.6844C223.797 63.3267 223.514 63.9425 223.011 64.3966C222.507 64.8508 221.825 65.1062 221.113 65.1069H199.314C198.602 65.1062 197.919 64.8507 197.416 64.3966C196.913 63.9424 196.63 63.3267 196.629 62.6844Z" fill="#CCCCCC"/>
<path d="M230.635 95.5227V72.31C230.636 71.6677 230.919 71.0519 231.422 70.5978C231.925 70.1436 232.608 69.8882 233.319 69.8875H255.119C255.831 69.8882 256.513 70.1436 257.016 70.5978C257.52 71.0519 257.803 71.6677 257.804 72.31V95.5227C257.803 96.1649 257.52 96.7807 257.016 97.2349C256.513 97.689 255.831 97.9445 255.119 97.9452H233.319C232.608 97.9445 231.925 97.689 231.422 97.2349C230.919 96.7807 230.636 96.1649 230.635 95.5227Z" fill="#FF6584"/>
<path d="M360.908 201.649H338.478C338.265 201.649 338.055 201.693 337.864 201.778L332.203 204.336C332.016 204.407 331.858 204.526 331.746 204.679C331.634 204.831 331.575 205.01 331.575 205.192C331.575 205.375 331.634 205.554 331.746 205.706C331.858 205.858 332.016 205.978 332.203 206.049L337.864 208.606C338.055 208.691 338.265 208.735 338.478 208.735H360.908C361.217 208.751 361.52 208.657 361.753 208.473C361.985 208.288 362.128 208.028 362.15 207.75V202.635C362.128 202.356 361.985 202.097 361.753 201.912C361.52 201.728 361.217 201.633 360.908 201.649Z" fill="#3F3D56"/>
<path d="M362.15 202.635V207.75C362.128 208.028 361.985 208.288 361.753 208.472C361.52 208.657 361.217 208.751 360.908 208.735H356.439V201.649H360.908C361.217 201.633 361.52 201.728 361.753 201.912C361.985 202.097 362.128 202.356 362.15 202.635Z" fill="#6C63FF"/>
<path d="M360.739 163.386C361.755 162.991 362.852 162.793 363.958 162.807C365.065 162.821 366.156 163.045 367.159 163.465C368.163 163.886 369.057 164.493 369.782 165.247C370.508 166.001 371.048 166.885 371.369 167.84C371.469 168.143 371.545 168.452 371.597 168.765L402.964 182.8L410.222 178.459L419.254 187.841L408.171 195.964C406.838 196.933 405.194 197.489 403.484 197.549C401.773 197.608 400.087 197.168 398.675 196.295L366.851 176.436C366.615 176.527 366.373 176.607 366.127 176.675C365.068 176.964 363.953 177.048 362.855 176.921C361.757 176.794 360.702 176.459 359.757 175.939C358.813 175.418 358.001 174.723 357.375 173.9C356.75 173.076 356.323 172.143 356.125 171.16C356.066 170.875 356.028 170.587 356.009 170.297C355.921 168.847 356.327 167.408 357.172 166.172C358.018 164.937 359.263 163.964 360.739 163.386Z" fill="#FFB8B8"/>
<path d="M426.069 249.799H391.796C391.796 250.688 356.473 251.41 356.473 251.41C355.919 251.786 355.414 252.219 354.967 252.698C353.626 254.142 352.892 255.967 352.897 257.851V259.14C352.898 261.275 353.838 263.323 355.511 264.832C357.185 266.342 359.454 267.191 361.82 267.192H426.069C428.435 267.19 430.703 266.341 432.376 264.831C434.049 263.322 434.99 261.275 434.992 259.14V257.851C434.989 255.717 434.048 253.67 432.375 252.161C430.702 250.652 428.434 249.802 426.069 249.799Z" fill="#3F3D56"/>
<path d="M388.788 320.981H398.068V266.872H388.788V320.981Z" fill="#3F3D56"/>
<path d="M362.374 320.687C362.374 321.592 376.437 321.037 393.785 321.037C411.132 321.037 425.195 321.592 425.195 320.687C425.195 319.782 411.132 312.607 393.785 312.607C376.437 312.607 362.374 319.782 362.374 320.687Z" fill="#3F3D56"/>
<path d="M370.752 314.345L362.001 314.344L357.837 293.862L370.753 293.863L370.752 314.345Z" fill="#FFB8B8"/>
<path d="M372.984 322L344.764 321.999V321.677C344.764 320.375 345.049 319.087 345.6 317.884C346.152 316.682 346.962 315.589 347.982 314.669C349.002 313.748 350.212 313.018 351.545 312.52C352.878 312.022 354.306 311.766 355.748 311.766H355.749L372.985 311.766L372.984 322Z" fill="#2F2E41"/>
<path d="M357.662 301.644L340.214 266.339C338.758 263.363 338.597 260.001 339.763 256.923C340.93 253.845 343.339 251.277 346.51 249.73L384.355 231.418L401.624 230.092L417.554 228.786L417.669 228.961C417.816 229.185 421.241 234.523 418.926 240.377C417.169 244.817 412.601 248.285 405.349 250.684C388.419 256.286 368.863 261.073 361.241 262.871C360.904 262.948 360.589 263.09 360.317 263.285C360.045 263.48 359.822 263.725 359.662 264.004C359.502 264.28 359.407 264.582 359.383 264.892C359.359 265.203 359.406 265.514 359.522 265.807L375.732 298.669C375.901 299.085 375.962 299.532 375.91 299.973C375.858 300.415 375.694 300.839 375.431 301.214C375.169 301.59 374.814 301.906 374.395 302.138C373.975 302.369 373.502 302.511 373.012 302.552L360.901 303.348C360.798 303.357 360.695 303.361 360.593 303.361C359.973 303.361 359.366 303.199 358.846 302.894C358.326 302.589 357.915 302.155 357.662 301.644Z" fill="#2F2E41"/>
<path d="M375.035 314.345L366.284 314.344L362.12 293.862L375.037 293.863L375.035 314.345Z" fill="#FFB8B8"/>
<path d="M377.267 322L349.048 321.999V321.677C349.048 320.375 349.332 319.087 349.884 317.884C350.436 316.682 351.245 315.589 352.265 314.669C353.285 313.748 354.496 313.018 355.828 312.52C357.161 312.022 358.589 311.766 360.032 311.766H360.032L377.268 311.766L377.267 322Z" fill="#2F2E41"/>
<path d="M362.659 303.576L345.211 268.271C343.755 265.295 343.594 261.934 344.76 258.856C345.927 255.778 348.336 253.209 351.507 251.662L389.352 233.35L406.621 232.025L422.551 230.718L422.666 230.894C422.813 231.118 426.238 236.456 423.923 242.309C422.166 246.749 417.598 250.217 410.346 252.617C393.417 258.218 373.86 263.005 366.238 264.803C365.901 264.881 365.586 265.022 365.314 265.217C365.042 265.413 364.819 265.658 364.659 265.937C364.499 266.212 364.404 266.515 364.38 266.825C364.356 267.135 364.404 267.447 364.519 267.74L380.729 300.601C380.898 301.018 380.959 301.464 380.907 301.906C380.855 302.347 380.691 302.772 380.429 303.147C380.166 303.522 379.811 303.838 379.392 304.07C378.972 304.302 378.499 304.444 378.01 304.485L365.898 305.281C365.795 305.29 365.692 305.294 365.591 305.294C364.97 305.294 364.363 305.131 363.843 304.826C363.323 304.522 362.912 304.087 362.659 303.576Z" fill="#2F2E41"/>
<path d="M353.963 195.724C346.631 186.924 340.835 177.163 336.776 166.781C336.541 166.16 336.558 165.484 336.823 164.873C337.089 164.262 337.586 163.756 338.226 163.444L363.316 151.314C363.722 151.116 364.172 151.005 364.633 150.988C365.094 150.971 365.553 151.049 365.975 151.216C366.405 151.385 366.787 151.64 367.092 151.962C367.396 152.284 367.615 152.664 367.732 153.074C370.653 163.079 376.142 172.323 383.756 180.059C384.069 180.373 384.299 180.749 384.427 181.156C384.556 181.563 384.579 181.991 384.497 182.407C384.417 182.817 384.235 183.206 383.964 183.543C383.694 183.88 383.341 184.156 382.934 184.352L357.845 196.482C357.203 196.791 356.46 196.884 355.75 196.745C355.039 196.607 354.406 196.245 353.963 195.724Z" fill="#CCCCCC"/>
<path d="M355.675 194.563C355.81 194.715 355.999 194.82 356.211 194.859C356.422 194.899 356.642 194.87 356.833 194.779L381.922 182.648C382.044 182.591 382.149 182.509 382.23 182.409C382.311 182.308 382.365 182.193 382.388 182.07C382.414 181.941 382.407 181.808 382.367 181.682C382.326 181.556 382.254 181.44 382.156 181.344C374.318 173.38 368.667 163.864 365.661 153.564C365.626 153.437 365.559 153.319 365.465 153.219C365.371 153.119 365.253 153.04 365.119 152.988C364.994 152.937 364.857 152.913 364.719 152.919C364.582 152.924 364.447 152.958 364.327 153.017L339.238 165.148C339.048 165.241 338.9 165.39 338.819 165.571C338.738 165.752 338.73 165.952 338.796 166.138C342.782 176.335 348.474 185.921 355.675 194.563Z" fill="white"/>
<path d="M437.313 192.488L417.664 199.226L412.867 187.201C412.23 185.605 412.239 183.856 412.892 182.265C413.546 180.674 414.801 179.342 416.438 178.506C418.093 177.659 420.029 177.375 421.896 177.704C423.763 178.033 425.438 178.953 426.619 180.299L437.313 192.488Z" fill="#6C63FF"/>
<path d="M387.335 240.13C386.922 239.866 386.575 239.526 386.319 239.132C386.062 238.737 385.902 238.299 385.848 237.844C383.331 216.645 385.084 200.055 391.206 187.126C392.284 184.896 393.909 182.916 395.957 181.334C398.006 179.752 400.425 178.61 403.033 177.992L418.916 177.269L418.998 177.305C422.582 178.889 425.505 181.473 427.334 184.674C429.162 187.875 429.799 191.523 429.149 195.076C424.04 207.227 419.763 219.878 423.025 230.084C423.162 230.51 423.202 230.958 423.142 231.398C423.083 231.839 422.926 232.265 422.68 232.65C422.441 233.022 422.121 233.345 421.738 233.601C421.356 233.857 420.919 234.039 420.455 234.137L390.203 240.631C389.713 240.736 389.203 240.746 388.709 240.659C388.215 240.573 387.746 240.393 387.335 240.13Z" fill="#6C63FF"/>
<path d="M413.615 171.916C423.299 171.916 431.149 164.832 431.149 156.095C431.149 147.357 423.299 140.273 413.615 140.273C403.932 140.273 396.082 147.357 396.082 156.095C396.082 164.832 403.932 171.916 413.615 171.916Z" fill="#FFB8B8"/>
<path d="M364.963 168.625L351.298 174.068C350.778 174.275 350.189 174.287 349.66 174.102C349.13 173.916 348.704 173.549 348.474 173.081L348.136 172.39C347.907 171.921 347.894 171.389 348.099 170.912C348.304 170.434 348.711 170.049 349.23 169.842L362.895 164.399C363.415 164.192 364.004 164.181 364.533 164.366C365.063 164.551 365.489 164.918 365.719 165.386L366.057 166.077C366.286 166.546 366.299 167.078 366.094 167.556C365.889 168.033 365.482 168.418 364.963 168.625Z" fill="#CCCCCC"/>
<path d="M369.96 177L356.295 182.442C355.775 182.649 355.186 182.661 354.657 182.476C354.127 182.29 353.701 181.923 353.471 181.455L353.133 180.764C352.904 180.295 352.891 179.763 353.096 179.286C353.301 178.808 353.708 178.423 354.227 178.216L367.892 172.773C368.412 172.566 369.001 172.555 369.53 172.74C370.06 172.925 370.486 173.292 370.716 173.76L371.054 174.451C371.283 174.92 371.296 175.452 371.091 175.93C370.886 176.407 370.479 176.792 369.96 177Z" fill="#CCCCCC"/>
<path d="M380.498 209.708L350.034 188.022C349.791 188.099 349.544 188.165 349.294 188.219C348.219 188.446 347.103 188.466 346.018 188.278C344.934 188.091 343.905 187.699 342.999 187.129C342.087 186.559 341.321 185.82 340.752 184.96C340.182 184.101 339.822 183.142 339.697 182.148C339.492 180.558 339.89 178.952 340.824 177.591C341.758 176.23 343.174 175.194 344.843 174.651C345.885 174.314 346.993 174.179 348.097 174.255C349.2 174.332 350.273 174.618 351.245 175.094C352.217 175.571 353.067 176.228 353.738 177.021C354.41 177.815 354.888 178.727 355.142 179.699C355.22 180.007 355.275 180.32 355.305 180.635L385.631 196.421L393.178 192.501L401.538 202.377L389.821 209.913C388.449 210.788 386.801 211.241 385.122 211.204C383.442 211.167 381.821 210.642 380.498 209.708Z" fill="#FFB8B8"/>
<path d="M405.256 205.453L387.874 194.787L396.043 184.347C397.127 182.961 398.72 181.965 400.54 181.536C402.359 181.107 404.288 181.272 405.986 182.003C407.703 182.741 409.071 184.01 409.843 185.579C410.615 187.148 410.739 188.914 410.194 190.559L405.256 205.453Z" fill="#6C63FF"/>
<path d="M407.187 153.738C402.68 156.521 396.763 159.382 392.161 156.418C389.138 154.472 388.186 150.869 389.412 147.706C391.616 142.019 397.671 139.516 403.461 137.596C410.989 135.102 419.185 133.117 426.956 134.903C434.726 136.69 441.594 143.479 440.191 150.603C439.063 156.333 433.074 161.1 433.924 166.868C434.78 172.673 442.015 175.729 448.402 176.767C454.79 177.804 461.938 178.138 466.528 182.278C472.384 187.559 470.922 196.999 465.412 202.575C459.901 208.151 451.586 210.678 443.529 212.397C432.853 214.673 421.307 215.87 411.167 212.091C401.028 208.313 393.138 198.143 396.075 188.606C397.316 184.577 400.238 181.173 403.063 177.858C405.887 174.544 408.748 171.078 409.825 167.011C410.723 163.622 410.058 159.688 407.568 157.146C407.115 156.701 406.83 156.138 406.754 155.538C406.677 154.938 406.814 154.331 407.144 153.805L407.187 153.738Z" fill="#2F2E41"/>
<path d="M77.8637 230.608C73.3457 232.041 68.4948 232.4 63.7784 231.65C59.062 230.901 54.639 229.067 50.9356 226.328C41.5039 219.184 38.5468 207.416 36.1407 196.519C33.7684 185.776 31.3962 175.032 29.0239 164.288L43.9236 173.546C54.6386 180.203 65.595 187.074 73.014 196.717C80.433 206.36 83.6714 219.523 77.7105 229.958" fill="#E6E6E6"/>
<path d="M76.5901 269.63C78.0981 259.718 79.6488 249.679 78.591 239.661C77.6515 230.763 74.6433 222.073 68.5191 214.948C65.2683 211.173 61.3127 207.939 56.8302 205.39C55.6613 204.725 54.5855 206.396 55.7493 207.059C63.5053 211.482 69.5043 218.013 72.8814 225.711C76.6113 234.272 77.2103 243.604 76.5676 252.697C76.1789 258.197 75.355 263.66 74.5249 269.116C74.4595 269.363 74.5003 269.623 74.6391 269.844C74.778 270.064 75.0044 270.229 75.2728 270.305C75.5466 270.371 75.8385 270.338 76.085 270.212C76.3316 270.085 76.5131 269.876 76.5901 269.63Z" fill="#F2F2F2"/>
<path d="M62.0649 252.091C60.1272 254.748 57.4637 256.91 54.331 258.369C51.1983 259.828 47.702 260.535 44.179 260.42C35.1248 260.033 27.5766 254.33 20.7817 248.917L0.683838 232.905L13.9853 232.331C23.5509 231.918 33.3633 231.532 42.4742 234.194C51.5852 236.856 59.9877 243.262 61.6537 251.771" fill="#E6E6E6"/>
<path d="M80.8519 275.328C73.5934 263.739 65.1742 250.859 50.1306 246.742C45.9477 245.601 41.5617 245.193 37.2087 245.538C35.8368 245.645 36.1794 247.553 37.5488 247.447C44.8453 246.9 52.1277 248.638 58.1701 252.369C63.9845 255.941 68.5116 260.906 72.3434 266.171C74.6904 269.396 76.7928 272.758 78.8956 276.115C79.5676 277.188 81.5317 276.413 80.8519 275.328Z" fill="#F2F2F2"/>
<path d="M92.482 287.526C92.2374 284.969 91.22 282.522 89.5405 280.45C87.861 278.379 85.5838 276.763 82.9569 275.779V269.079H70.5035V275.99C68.006 277.023 65.8565 278.635 64.2744 280.661C62.6922 282.688 61.7339 285.057 61.4972 287.526L58.5688 318.242H95.4103L92.482 287.526Z" fill="#F2F2F2"/>
</g>
<defs>
<clipPath id="clip0_72_178">
<rect width="494" height="322" fill="white"/>
</clipPath>
</defs>
</svg>
