<svg width="89" height="89" viewBox="0 0 89 89" fill="none" xmlns="http://www.w3.org/2000/svg">
<g clip-path="url(#clip0_103_74)">
<path d="M13.323 10.2377H5.08013C3.50685 10.2377 2.22693 9.29837 2.22693 8.14369V2.09404C2.22693 0.93937 3.50685 0 5.08013 0H13.323C14.8962 0 16.1762 0.93937 16.1762 2.09404V8.14369C16.1762 9.29837 14.8962 10.2377 13.323 10.2377Z" fill="#D7D7D7"/>
<path d="M48.8838 10.2377H40.6409C39.0676 10.2377 37.7877 9.29837 37.7877 8.14369V2.09404C37.7877 0.93937 39.0676 0 40.6409 0H48.8838C50.457 0 51.737 0.93937 51.737 2.09404V8.14369C51.737 9.29837 50.457 10.2377 48.8838 10.2377Z" fill="#D7D7D7"/>
<path d="M84.0515 10.2377H75.8086C74.2354 10.2377 72.9554 9.29837 72.9554 8.14369V2.09404C72.9554 0.93937 74.2354 0 75.8086 0H84.0515C85.6248 0 86.9047 0.93937 86.9047 2.09404V8.14369C86.9047 9.29837 85.6248 10.2377 84.0515 10.2377Z" fill="#D7D7D7"/>
<path d="M13.323 30.4249H5.08013C3.50685 30.4249 2.22693 29.4855 2.22693 28.3308V22.2812C2.22693 21.1265 3.50685 20.1871 5.08013 20.1871H13.323C14.8962 20.1871 16.1762 21.1265 16.1762 22.2812V28.3308C16.1762 29.4855 14.8962 30.4249 13.323 30.4249Z" fill="#2F2E41"/>
<path d="M48.8838 30.4249H40.6409C39.0676 30.4249 37.7877 29.4855 37.7877 28.3308V22.2812C37.7877 21.1265 39.0676 20.1871 40.6409 20.1871H48.8838C50.457 20.1871 51.737 21.1265 51.737 22.2812V28.3308C51.737 29.4855 50.457 30.4249 48.8838 30.4249Z" fill="#D7D7D7"/>
<path d="M84.0515 30.4249H75.8086C74.2354 30.4249 72.9554 29.4855 72.9554 28.3308V22.2812C72.9554 21.1265 74.2354 20.1871 75.8086 20.1871H84.0515C85.6248 20.1871 86.9047 21.1265 86.9047 22.2812V28.3308C86.9047 29.4855 85.6248 30.4249 84.0515 30.4249Z" fill="#D7D7D7"/>
<path d="M14.7026 23.7198C16.5472 23.7198 18.0426 22.6224 18.0426 21.2686C18.0426 19.9147 16.5472 18.8173 14.7026 18.8173C12.858 18.8173 11.3627 19.9147 11.3627 21.2686C11.3627 22.6224 12.858 23.7198 14.7026 23.7198Z" fill="#6C63FF"/>
<path d="M56.5572 20.1836C56.5572 20.4215 56.5199 20.6652 56.4413 20.9089L53.1583 31.1625C52.6927 32.6203 50.7024 33.5229 48.7181 33.1783L35.5607 30.1819L34.9182 30.0363C34.1697 30.4343 33.1245 30.6174 32.0321 30.4761C30.1224 30.2281 28.8002 29.0875 29.0791 27.9268C29.3582 26.7675 31.1323 26.0278 33.042 26.2743C34.1344 26.4156 35.0322 26.8497 35.5509 27.4106L35.5607 27.412L35.5941 27.4163L47.0462 28.456L48.0089 19.9313C48.1916 18.3019 50.0463 17.0488 52.2742 17.0488C54.6908 17.0488 56.5572 18.498 56.5572 20.1836Z" fill="#EB9B9E"/>
<path d="M56.5573 20.1836C56.5573 20.4215 56.52 20.6652 56.4414 20.9089L53.7478 31.5951C53.2822 33.0529 51.2919 33.9555 49.3076 33.6109L36.1501 30.926L36.7396 26.7444L46.7594 27.7538L48.0089 19.9313C48.1917 18.3019 50.0463 17.0488 52.2742 17.0488C54.6909 17.0488 56.5573 18.498 56.5573 20.1836Z" fill="#2F2E43"/>
<path d="M0 88.8918H6.98247H13.1889H13.4384H18.9022H56.3195H65.2234H89" stroke="#090814" stroke-width="1.5" stroke-miterlimit="10"/>
<path d="M73.6453 76.4926L70.4673 78.2122L72.8102 80.5446L75.9882 78.8251L73.6453 76.4926Z" fill="#EB9B9E"/>
<path d="M77.5771 81.2403L70.8217 84.8955C70.2443 85.2079 69.5666 85.4248 68.8618 85.5228L67.175 85.7572C66.8263 85.8057 66.4648 85.7016 66.2542 85.4919C66.0072 85.246 66.0142 84.9064 66.2713 84.6661L68.3164 82.7541L71.0086 78.6803L71.0242 78.6907C71.4133 78.9518 72.0043 79.3445 72.0486 79.3637C72.8801 79.4988 73.5185 79.4229 73.9465 79.1382C74.6929 78.6417 74.5424 77.6679 74.5408 77.6581L74.5396 77.6506L74.5484 77.6468C74.7517 77.5589 74.9476 77.5392 75.1307 77.5883C75.5193 77.6924 75.722 78.0667 75.7511 78.124C76.1304 78.163 77.1171 78.9933 77.1964 79.0605C77.7641 79.136 78.1549 79.2924 78.3579 79.5253C78.5355 79.729 78.5699 79.9888 78.4603 80.2973C78.3284 80.6686 78.0148 81.0035 77.5771 81.2403Z" fill="#2F2E43"/>
<path d="M46.3925 83.2986H42.4442V86.1964H46.3925V83.2986Z" fill="#EB9B9E"/>
<path d="M45.7186 88.8324H37.3258C36.6085 88.8324 35.8876 88.7118 35.2411 88.4837L33.6939 87.9379C33.374 87.825 33.1672 87.5838 33.1672 87.3233C33.1672 87.0177 33.4474 86.7475 33.8486 86.666L37.0407 86.0177L42.5014 83.9111L42.5055 83.9263C42.6076 84.3059 42.7659 84.8794 42.786 84.9142C43.346 85.385 43.9213 85.602 44.4959 85.5592C45.4981 85.4846 46.1643 84.6353 46.171 84.6267L46.176 84.6201L46.1862 84.6209C46.4209 84.6387 46.5945 84.7082 46.7022 84.8274C46.9309 85.0804 46.7914 85.47 46.7684 85.5288C47.0422 85.7254 47.1651 86.8234 47.1746 86.912C47.5705 87.22 47.7586 87.5161 47.7337 87.7921C47.7119 88.0333 47.5296 88.2574 47.1919 88.458C46.7856 88.6994 46.2624 88.8324 45.7186 88.8324Z" fill="#2F2E43"/>
<path d="M62.5027 38.0005H43.5797L40.5634 84.0737H47.2274L51.533 63.1314L68.8103 79.8853L75.118 75.6968L62.5027 63.1314V38.0005Z" fill="#2F2E43"/>
<path d="M57.6311 7.72157C57.6311 7.72157 62.8446 7.71331 60.897 4.02638C58.9493 0.339451 55.3228 1.99029 55.3228 1.99029C55.3228 1.99029 53.7946 2.5827 54.1097 3.90444" fill="#2F2E43"/>
<path d="M58.1528 9.49006C58.1528 6.66327 55.0305 4.3717 51.1789 4.3717C47.3273 4.3717 44.205 6.66327 44.205 9.49006C44.205 11.7826 46.2587 13.7228 49.0895 14.3745L50.4377 20.9137L57.3106 16.7102C57.3106 16.7102 55.8258 15.3222 55.0295 13.7571C56.9115 12.8405 58.1528 11.272 58.1528 9.49006Z" fill="#EB9B9E"/>
<path d="M54.5296 13.8138C54.5296 13.8138 55.4557 11.2079 53.9414 10.0097C52.4305 8.81417 52.2353 10.6743 52.2353 10.6743L51.1452 10.5004C51.1452 10.5004 51.3348 8.69141 49.2018 8.37832L50.5764 6.22148C50.5764 6.22148 45.3137 6.97142 45.1687 6.59733C44.0274 3.65387 54.9155 1.13946 57.9233 5.63009C62.6013 12.6145 54.5296 13.8138 54.5296 13.8138Z" fill="#2F2E43"/>
<path d="M58.3473 31.6846L61.4378 38.3687L43.9521 38.2245L46.5592 32.1172L58.3473 31.6846Z" fill="#EB9B9E"/>
<path d="M56.7683 14.7196L49.0141 16.6981L41.6835 44.4735L56.7683 45.8252L57.8682 41.5903L58.9168 45.8252H64.1422L58.5086 18.2046C58.2565 16.9683 57.6644 15.7826 56.7683 14.7196Z" fill="#6C63FF"/>
<path d="M54.5943 47.3552L54.7292 42.7898L51.0972 42.7319L50.9623 47.2974C50.2846 47.7591 49.8373 48.4764 49.8133 49.2898C49.7712 50.7129 51.038 51.8873 52.6427 51.9128C54.2474 51.9384 55.5824 50.8054 55.6245 49.3823C55.6485 48.569 55.2439 47.838 54.5943 47.3552Z" fill="#EB9B9E"/>
<path d="M49.5801 24.5049V46.6341H55.8877L57.7519 24.6917" fill="#2F2E43"/>
<path d="M62.2819 47.9767C62.1712 47.9767 62.0605 47.9738 61.9494 47.9676C60.6241 47.8945 59.4836 47.3729 58.5596 46.4176C55.0823 42.8215 48.0704 30.9208 48.0704 27.5366C48.0704 24.3026 49.0298 16.8906 49.0629 16.7795L56.1448 13.9017C59.5423 14.4871 61.9072 16.7706 61.7683 19.3313C61.4289 25.5878 62.3029 39.8501 68.021 45.7604L68.0682 45.8092L68.0117 45.8522C67.8936 45.9421 65.1852 47.9767 62.2819 47.9767Z" fill="#2F2E43"/>
</g>
<defs>
<clipPath id="clip0_103_74">
<rect width="89" height="89" fill="white"/>
</clipPath>
</defs>
</svg>
