<svg width="101" height="118" viewBox="0 0 101 118" fill="none" xmlns="http://www.w3.org/2000/svg">
<g clip-path="url(#clip0_103_107)">
<path d="M39.1182 96.8499C37.1085 94.818 34.1962 93.6527 31.128 93.6527L31.0097 93.653C28.9887 93.6538 27.0039 93.1283 25.258 92.1303L25.0764 92.0265L25.2227 91.8787C26.0148 91.0752 26.6763 90.1571 27.1838 89.1566C26.8234 89.4861 26.3934 89.7339 25.9244 89.8824C25.4554 90.0309 24.9589 90.0766 24.4699 90.0161C23.9537 89.9558 23.4581 89.7816 23.0203 89.5067C22.5825 89.2318 22.2139 88.8633 21.9421 88.4288C20.8697 86.723 19.5914 84.3027 19.5914 82.4588C19.5931 80.9003 19.926 79.3592 20.5688 77.9338C21.2116 76.5084 22.1503 75.2299 23.3251 74.1799C24.0688 73.5225 24.6629 72.7187 25.0685 71.8211C25.4741 70.9236 25.6822 69.9522 25.6793 68.9705L25.6787 68.8308C25.6785 67.5382 25.8396 66.2506 26.1584 64.9964L26.1908 64.8698L26.3237 64.8743C27.1808 64.9029 28.0384 64.8325 28.8787 64.6645C28.0905 64.5697 27.3194 64.3686 26.5873 64.067L26.4443 64.0103L26.4928 63.8666C29.8379 61.8362 37.3886 62.8877 41.7712 53.0573C45.325 45.0863 57.8637 60.1333 57.8637 68.8308C57.8637 69.7182 56.9679 70.891 57.6385 71.4776C64.8884 77.8186 59.8861 81.8903 58.3089 85.9875C57.9347 86.9596 58.7461 88.0268 58.7461 89.0785C58.7461 89.257 58.7415 89.4412 58.7323 89.626L58.7183 89.9102L58.4766 89.7525C57.9984 89.4454 57.5551 89.0889 57.1544 88.6893C57.5701 89.6272 57.7661 90.6447 57.7278 91.6667C57.6895 92.6888 57.4179 93.6894 56.9331 94.5949C56.1733 96.0008 55.4382 97.0072 54.7484 97.5861C52.5384 99.4402 49.6896 100.397 46.7842 100.26C43.8789 100.123 41.1367 98.9031 39.1182 96.8499Z" fill="#E6E6E6"/>
<path d="M51.2561 118C51.3055 118 51.3532 117.982 51.3905 117.951C51.4278 117.919 51.4521 117.875 51.4591 117.827C51.4678 117.767 52.3224 111.725 51.5549 103.695C50.8461 96.2792 48.57 85.5976 41.7517 76.8251C41.7354 76.804 41.715 76.7863 41.6916 76.773C41.6683 76.7597 41.6426 76.751 41.6158 76.7474C41.5891 76.7439 41.5619 76.7455 41.5358 76.7523C41.5097 76.759 41.4852 76.7708 41.4638 76.7868C41.4423 76.8028 41.4243 76.8229 41.4107 76.8457C41.3971 76.8686 41.3883 76.8939 41.3847 76.9201C41.3811 76.9463 41.3828 76.973 41.3897 76.9986C41.3967 77.0241 41.4087 77.0481 41.425 77.0691C48.1845 85.7659 50.4422 96.3691 51.146 103.733C51.909 111.716 51.0612 117.711 51.0525 117.77C51.0484 117.799 51.0506 117.828 51.0589 117.856C51.0672 117.883 51.0816 117.909 51.1009 117.931C51.1202 117.952 51.144 117.97 51.1708 117.982C51.1976 117.994 51.2266 118 51.2561 118Z" fill="#3F3D56"/>
<path d="M45.692 89.1991C45.7354 89.1991 45.7776 89.1857 45.8127 89.1607C45.8478 89.1357 45.874 89.1005 45.8874 89.0601C45.9008 89.0196 45.9008 88.9761 45.8875 88.9356C45.8741 88.8952 45.848 88.8599 45.8129 88.8349C43.87 87.5457 41.7712 86.4983 39.5648 85.7168C36.1176 84.4795 30.8756 83.3579 25.4791 85.0417C25.4534 85.0496 25.4295 85.0625 25.4088 85.0795C25.3882 85.0966 25.3711 85.1174 25.3587 85.1409C25.3463 85.1644 25.3387 85.1901 25.3364 85.2165C25.3341 85.2429 25.3371 85.2694 25.3453 85.2946C25.3535 85.3199 25.3667 85.3433 25.3841 85.3635C25.4015 85.3837 25.4228 85.4004 25.4468 85.4125C25.4708 85.4246 25.497 85.432 25.524 85.4342C25.5509 85.4364 25.578 85.4334 25.6037 85.4253C30.8896 83.7761 36.0365 84.8792 39.4236 86.0949C41.5946 86.863 43.6597 87.8928 45.5714 89.1606C45.6064 89.1856 45.6486 89.1991 45.692 89.1991Z" fill="#3F3D56"/>
<path d="M55.0904 66.251C55.0935 66.2086 55.0829 66.1663 55.06 66.1302C55.0371 66.094 55.0032 66.0659 54.963 66.0499C54.9228 66.0339 54.8785 66.0307 54.8364 66.0409C54.7943 66.0511 54.7565 66.0741 54.7286 66.1066C53.277 67.9135 52.0602 69.8903 51.1062 71.9915C49.5992 75.2731 48.0806 80.318 49.405 85.7161C49.4113 85.7418 49.4227 85.7661 49.4385 85.7875C49.4544 85.8089 49.4744 85.827 49.4974 85.8408C49.5204 85.8547 49.546 85.8639 49.5726 85.8681C49.5993 85.8722 49.6265 85.8711 49.6527 85.865C49.679 85.8588 49.7037 85.8476 49.7255 85.832C49.7473 85.8164 49.7658 85.7968 49.7799 85.7742C49.794 85.7517 49.8034 85.7266 49.8076 85.7005C49.8117 85.6743 49.8106 85.6476 49.8043 85.6219C48.5071 80.3345 50 75.3812 51.4808 72.1568C52.4186 70.0893 53.615 68.1441 55.0425 66.3661C55.0705 66.3337 55.0873 66.2934 55.0904 66.251Z" fill="#3F3D56"/>
<path d="M94.6985 117.787H78.3515L78.2813 117.662C78.0723 117.29 77.8705 116.896 77.6819 116.492C75.9981 112.958 75.2864 108.916 74.6584 105.35L74.1855 102.662C74.1282 102.336 74.1714 102.001 74.3094 101.7C74.4474 101.398 74.674 101.144 74.9602 100.97C75.2464 100.796 75.5792 100.709 75.9159 100.721C76.2527 100.733 76.5781 100.843 76.8505 101.038C79.3348 102.81 81.82 104.581 84.3062 106.349C85.2476 107.021 86.3227 107.798 87.3524 108.638C87.4517 108.165 87.5556 107.691 87.6595 107.223C87.7312 106.9 87.8995 106.605 88.143 106.376C88.3865 106.148 88.694 105.996 89.0263 105.939C89.3585 105.883 89.7004 105.925 90.008 106.06C90.3157 106.196 90.5752 106.418 90.7533 106.698L92.6659 109.711C94.0609 111.911 95.2921 114.079 95.0412 116.417C95.0424 116.445 95.0403 116.474 95.0347 116.502C94.9845 116.886 94.8915 117.263 94.7572 117.627L94.6985 117.787Z" fill="#F0F0F0"/>
<path d="M87.0826 54.7826L83.9277 43.3349C83.7926 42.8503 83.4686 42.4372 83.0255 42.1847C82.5824 41.9323 82.0559 41.8607 81.5595 41.9855C81.3027 42.0501 81.062 42.1653 80.8521 42.324C80.6422 42.4827 80.4674 42.6817 80.3385 42.9088C80.2096 43.1359 80.1292 43.3864 80.1022 43.6449C80.0753 43.9035 80.1023 44.1647 80.1817 44.4127L83.8307 56.2055L85.7398 63.463C85.4617 63.6711 85.2558 63.9581 85.1499 64.285C85.044 64.6119 85.0434 64.9628 85.148 65.2901C85.2527 65.6173 85.4575 65.9051 85.7348 66.1142C86.0121 66.3234 86.3483 66.4438 86.6978 66.4591C87.0473 66.4744 87.3931 66.3838 87.6883 66.1997C87.9834 66.0156 88.2136 65.7469 88.3476 65.4301C88.4815 65.1132 88.5128 64.7636 88.437 64.4288C88.3613 64.094 88.1822 63.7901 87.9242 63.5585L87.0826 54.7826Z" fill="#A0616A"/>
<path d="M60.5352 52.3171L70.1209 45.0849C70.5261 44.7773 70.7917 44.3258 70.8603 43.828C70.929 43.3301 70.7952 42.8258 70.4879 42.4237C70.329 42.2157 70.1284 42.0417 69.8986 41.9121C69.6688 41.7826 69.4144 41.7003 69.1511 41.6703C68.8878 41.6403 68.621 41.6631 68.367 41.7375C68.1129 41.8119 67.877 41.9362 67.6736 42.1028L57.9514 49.9146L51.8397 54.4171C51.5373 54.2448 51.188 54.1678 50.8394 54.1968C50.4908 54.2258 50.1598 54.3593 49.8913 54.5791C49.6228 54.799 49.4298 55.0945 49.3386 55.4256C49.2474 55.7567 49.2623 56.1074 49.3815 56.4298C49.5006 56.7523 49.7181 57.031 50.0044 57.2281C50.2907 57.4252 50.632 57.531 50.9818 57.5313C51.3317 57.5317 51.6731 57.4264 51.9598 57.2298C52.2465 57.0332 52.4645 56.7549 52.5842 56.4327L60.5352 52.3171Z" fill="#A0616A"/>
<path d="M68.3479 53.9797L67.9254 63.231L81.1922 60.4042C80.063 56.6868 79.2952 56.0527 80.1437 53.4657L68.3479 53.9797Z" fill="#A0616A"/>
<path d="M76.5054 37.0195H72.0848L70.1864 40.2043L69.2818 40.1553C68.8394 40.1314 68.3966 40.1961 67.9806 40.3456C67.5646 40.4951 67.184 40.7262 66.8622 41.0248C66.5404 41.3234 66.284 41.6832 66.1088 42.0822C65.9336 42.4812 65.8433 42.911 65.8433 43.3454L66.9578 45.0389C66.9578 45.0389 64.9645 48.4445 67.8358 50.1199C67.8358 50.1199 67.3237 53.2766 67.8358 53.2427C68.3479 53.2088 69.5275 52.5663 68.3479 53.2088C67.1683 53.8512 67.2563 53.9375 67.4089 54.0871L67.5615 54.2367L79.9648 56.2784C79.9648 56.2784 80.3276 53.9212 80.3667 53.5007C80.4058 53.0803 80.1437 54.1082 80.4058 53.0803C80.6679 52.0523 81.0611 52.4378 80.6679 52.0523C80.2748 51.6669 83.2156 46.8913 82.0073 45.0389L83.9445 43.1865C83.9445 41.4096 81.0335 39.9692 79.221 39.9692H78.9889L76.5054 37.0195Z" fill="#E6E6E6"/>
<path d="M65.8546 114.22H64.0653L63.2141 107.455L65.8548 107.455L65.8546 114.22Z" fill="#A0616A"/>
<path d="M60.4543 116.808C60.4552 117.005 60.5351 117.193 60.6767 117.332C60.8183 117.471 61.0101 117.55 61.2105 117.551H64.5787L64.683 117.339L65.1594 116.375L65.3439 117.339L65.3848 117.551H66.6552L66.637 117.338L66.2983 113.355L65.8551 113.328L63.9404 113.217L63.47 113.189V114.378C63.1131 114.75 60.3122 116.157 60.4543 116.808Z" fill="#2F2E41"/>
<path d="M92.4455 109.626L90.9408 110.575L86.4911 105.336L88.7121 103.936L92.4455 109.626Z" fill="#A0616A"/>
<path d="M89.3321 114.667C89.4413 114.831 89.6124 114.947 89.8082 114.989C90.004 115.031 90.2088 114.996 90.378 114.89L93.2106 113.104L93.1814 112.87L93.0502 111.807L93.7372 112.52L93.8886 112.676L94.957 112.002L94.8239 111.832L92.3412 108.663L91.9538 108.875L90.2821 109.797L89.871 110.023L90.5272 111.023C90.4325 111.526 88.8533 114.195 89.3321 114.667Z" fill="#2F2E41"/>
<path d="M100.792 117.911L45.3894 117.963C45.3341 117.963 45.2812 117.941 45.2422 117.903C45.2032 117.865 45.1813 117.813 45.1813 117.758C45.1813 117.704 45.2032 117.652 45.2422 117.614C45.2812 117.575 45.3341 117.554 45.3894 117.553L100.792 117.5C100.847 117.501 100.9 117.522 100.939 117.561C100.978 117.599 101 117.651 101 117.705C101 117.76 100.978 117.812 100.939 117.85C100.9 117.889 100.847 117.91 100.792 117.911Z" fill="#CACACA"/>
<path d="M80.9844 59.3591C80.9844 59.3591 72.504 63.7568 68.0186 60.7564C68.0186 60.7564 67.0374 65.4153 66.6442 65.8008C66.251 66.1862 65.6246 66.3542 66.0688 66.7842C66.5131 67.2142 66.7604 67.7949 65.9159 68.5325C65.0714 69.27 64.2293 69.036 65.0436 69.7955C65.8578 70.5549 62.5812 89.186 62.5812 89.186C62.5812 89.186 63.1055 106.512 62.5812 107.036C62.0569 107.56 61.3562 107.677 62.0342 108.325C62.7123 108.973 62.7123 108.471 62.7123 109.365V110.258L63.0225 111.147H67.278C67.278 111.147 68.305 109.977 67.278 108.961C66.251 107.946 67.5905 107.668 67.9037 106.714C68.217 105.761 68.7412 106.789 68.217 105.761C67.6927 104.733 67.4409 104.929 67.4357 104.253C67.4306 103.577 75.1633 77.1079 75.1633 77.1079L76.0999 91.7582L87.3655 107.803L90.6815 105.364C90.6815 105.364 88.2672 102.033 88.8318 101.575C89.3963 101.116 87.1679 100.542 87.8706 100.025C88.5733 99.5086 86.8817 98.9879 87.5192 98.303C88.1568 97.618 86.6408 95.8917 85.7624 95.8917C84.884 95.8917 83.6512 93.014 83.6512 93.014L85.4915 70.2807L80.9844 59.3591Z" fill="#2F2E41"/>
<path d="M71.996 27.6683C71.936 27.7455 71.4579 27.7039 70.8829 27.6216C69.746 27.4589 69.5911 27.6523 68.7412 28.4102C67.5101 29.508 68.2101 36.2041 67.6051 37.655L67.4097 37.7962C67.7973 37.7236 68.1781 37.6192 68.5479 37.4839C68.7567 36.8378 68.9662 36.1896 69.177 35.544C69.3761 36.0463 69.5012 36.5738 69.5487 37.1107C69.8413 36.9976 70.1323 36.721 71.3551 36.3501C71.9709 35.9406 76.4255 35.5288 76.9983 35.3486C78.4517 30.5005 76.1094 28.54 71.996 27.6683Z" fill="#2F2E41"/>
<path d="M73.5 35.1441C75.851 35.1441 77.7569 33.2757 77.7569 30.9708C77.7569 28.6659 75.851 26.7974 73.5 26.7974C71.1489 26.7974 69.243 28.6659 69.243 30.9708C69.243 33.2757 71.1489 35.1441 73.5 35.1441Z" fill="#A0616A"/>
<path d="M76.1801 27.3004C75.9402 27.2657 75.7093 27.1864 75.4998 27.0666C75.396 27.0051 75.3118 26.9162 75.2571 26.8101C75.2023 26.704 75.1791 26.5849 75.19 26.4665C75.2425 26.1699 75.5844 25.9929 75.8909 26.0109C76.196 26.054 76.4858 26.169 76.7356 26.3461C76.7082 26.0595 76.5833 25.7903 76.381 25.5817C76.1788 25.3731 75.9108 25.2371 75.6203 25.1957C76.0233 25.1745 76.4423 25.1557 76.815 25.3076C77.1877 25.4596 77.4982 25.8359 77.431 26.2261C78.0575 26.1469 78.6754 26.5749 78.9341 27.1399C79.1928 27.7049 79.1415 28.3685 78.9348 28.9537C78.9144 29.0433 78.8746 29.1276 78.8181 29.2008C78.7616 29.2741 78.6897 29.3345 78.6073 29.3781C78.3964 29.4566 78.1695 29.325 77.9868 29.1954C77.0324 28.5179 76.1637 27.7314 75.3992 26.8525" fill="#2F2E41"/>
<path d="M78.0362 35.4077C77.8557 35.491 77.9497 35.8009 77.8094 35.9396C77.7486 35.9984 77.6752 36.0432 77.5945 36.0707C77.5734 35.8121 77.512 35.5581 77.4123 35.3178C77.394 35.2741 77.3638 35.2252 77.3166 35.2291C77.2616 35.2355 77.2472 35.3062 77.2459 35.3589C77.2348 35.6202 77.1757 35.8774 77.0716 36.1182C77.0702 36.1208 77.0689 36.1247 77.0676 36.1272C77.027 36.126 76.9851 36.1247 76.9457 36.1234C76.6417 36.1118 75.968 35.346 75.8186 35.6056C76.3455 34.6894 76.9877 33.312 77.086 32.2648C77.12 32.0456 77.1035 31.8216 77.0375 31.6095C77.003 31.504 76.9384 31.4104 76.8513 31.3398C76.7642 31.2692 76.6582 31.2245 76.546 31.2112C76.4906 31.2087 76.4354 31.2183 76.3843 31.2392C76.3331 31.2601 76.2873 31.2918 76.2501 31.332C76.2129 31.3723 76.1853 31.4201 76.1691 31.4721C76.153 31.5241 76.1487 31.5789 76.1567 31.6327L76.0807 31.6224C75.3756 31.0596 75.9837 30.0818 75.1633 29.695C74.8854 29.564 73.1842 30.0021 72.8841 29.925C72.8776 29.6151 72.8132 29.3089 72.694 29.0217C72.6757 28.978 72.6455 28.9292 72.5983 28.9331C72.5433 28.9395 72.5289 29.0102 72.5276 29.0628C72.5165 29.3242 72.4574 29.5814 72.3533 29.8222C71.9375 29.7644 71.5142 29.7862 71.1068 29.8865C70.7477 29.979 70.407 30.1383 70.0465 30.2231C69.8684 30.2766 69.6809 30.294 69.4957 30.2741C69.3105 30.2542 69.1313 30.1975 68.9692 30.1075C68.5118 29.8068 68.4318 29.1412 68.6599 28.6504C68.8249 28.3354 69.048 28.0531 69.3178 27.8178C69.5236 27.6225 69.7372 27.4349 69.9509 27.2473C70.1422 27.079 70.3336 26.9106 70.5249 26.7423C70.7658 26.52 71.0225 26.3148 71.2929 26.1281C71.7248 25.8506 72.21 25.6625 72.7187 25.5755C73.2274 25.4884 73.7488 25.5042 74.2511 25.6219C74.854 25.7632 75.66 25.5641 76.2118 25.8403C76.5001 25.9855 77.1384 26.5419 77.3914 26.7397C78.0388 27.2447 77.6007 26.8332 78.3088 27.1252C79.9974 27.8214 79.2507 34.8472 78.0362 35.4077Z" fill="#2F2E41"/>
<path d="M30.9018 65.8688C45.4822 65.8688 57.302 54.2811 57.302 39.987C57.302 25.693 45.4822 14.1053 30.9018 14.1053C16.3215 14.1053 4.50171 25.693 4.50171 39.987C4.50171 54.2811 16.3215 65.8688 30.9018 65.8688Z" fill="white"/>
<path d="M30.9018 66.1271C16.1994 66.1271 4.23816 54.4007 4.23816 39.9871C4.23816 25.5734 16.1994 13.847 30.9018 13.847C45.6042 13.847 57.5655 25.5734 57.5655 39.9871C57.5655 54.4007 45.6042 66.1271 30.9018 66.1271ZM30.9018 14.3637C16.4901 14.3637 4.7652 25.8584 4.7652 39.9871C4.7652 54.1158 16.4901 65.6104 30.9018 65.6104C45.3135 65.6104 57.0384 54.1158 57.0384 39.9871C57.0384 25.8584 45.3135 14.3637 30.9018 14.3637Z" fill="#6C63FF"/>
<path d="M27.3003 53.4573C26.8444 53.4573 26.3948 53.3532 25.9871 53.1533C25.5793 52.9533 25.2247 52.6631 24.9512 52.3054L17.7489 42.8907C17.5175 42.5883 17.3492 42.2441 17.2535 41.8778C17.1578 41.5116 17.1366 41.1305 17.1911 40.7562C17.2457 40.3819 17.3749 40.0219 17.5714 39.6966C17.7679 39.3713 18.0278 39.0871 18.3363 38.8603C18.6449 38.6334 18.9959 38.4684 19.3695 38.3746C19.7431 38.2808 20.1318 38.26 20.5136 38.3135C20.8954 38.367 21.2626 38.4936 21.5945 38.6863C21.9263 38.8789 22.2162 39.1337 22.4475 39.4362L27.1596 45.595L39.2618 27.7984C39.694 27.1636 40.3657 26.723 41.1292 26.5736C41.8927 26.4241 42.6855 26.578 43.3333 27.0014C43.9811 27.4247 44.4309 28.083 44.5838 28.8314C44.7367 29.5798 44.5802 30.3571 44.1488 30.9924L29.744 52.1752C29.4835 52.5583 29.133 52.8745 28.722 53.0974C28.311 53.3204 27.8516 53.4434 27.3821 53.4563C27.3548 53.4568 27.3276 53.4573 27.3003 53.4573Z" fill="#6C63FF"/>
<path d="M58.1017 15.7225C58.1751 15.2277 57.6465 14.7426 56.9209 14.6391C56.1954 14.5356 55.5477 14.8529 55.4742 15.3477C55.4008 15.8425 55.9294 16.3275 56.655 16.431C57.3805 16.5345 58.0283 16.2173 58.1017 15.7225Z" fill="#E6E6E6"/>
<path d="M66.7401 14.8961C66.8135 14.4012 66.2849 13.9162 65.5593 13.8127C64.8338 13.7092 64.1861 14.0265 64.1126 14.5213C64.0392 15.0161 64.5679 15.5011 65.2934 15.6046C66.019 15.7081 66.6667 15.3909 66.7401 14.8961Z" fill="#3F3D56"/>
<path d="M55.7361 8.86627C55.8095 8.37145 55.2809 7.88642 54.5553 7.78293C53.8298 7.67944 53.1821 7.99667 53.1086 8.49149C53.0352 8.98631 53.5638 9.47135 54.2894 9.57484C55.0149 9.67833 55.6626 9.36109 55.7361 8.86627Z" fill="#FF6584"/>
<path d="M51.9825 6.05783C51.986 5.60357 51.7275 5.23337 51.4052 5.23098C51.0828 5.22859 50.8187 5.59491 50.8152 6.04918C50.8117 6.50345 51.0701 6.87364 51.3925 6.87603C51.7148 6.87842 51.979 6.5121 51.9825 6.05783Z" fill="#E6E6E6"/>
<path d="M50.7095 0.826877C50.713 0.37261 50.4546 0.00241527 50.1322 2.56588e-05C49.8099 -0.00236395 49.5457 0.363956 49.5422 0.818223C49.5387 1.27249 49.7972 1.64268 50.1195 1.64507C50.4419 1.64746 50.706 1.28114 50.7095 0.826877Z" fill="#3F3D56"/>
<path d="M60.6084 10.0329C60.6119 9.57866 60.3534 9.20847 60.0311 9.20608C59.7088 9.20369 59.4446 9.57001 59.4411 10.0243C59.4376 10.4785 59.6961 10.8487 60.0184 10.8511C60.3407 10.8535 60.6049 10.4872 60.6084 10.0329Z" fill="#E6E6E6"/>
<path d="M56.4339 12.0764C56.4374 11.6221 56.1789 11.2519 55.8566 11.2495C55.5343 11.2472 55.2701 11.6135 55.2666 12.0677C55.2631 12.522 55.5216 12.8922 55.8439 12.8946C56.1662 12.897 56.4304 12.5307 56.4339 12.0764Z" fill="#FF6584"/>
<path d="M62.2449 15.853C62.2484 15.3987 61.99 15.0285 61.6676 15.0262C61.3453 15.0238 61.0811 15.3901 61.0776 15.8444C61.0741 16.2986 61.3326 16.6688 61.6549 16.6712C61.9773 16.6736 62.2414 16.3073 62.2449 15.853Z" fill="#3F3D56"/>
<path d="M8.55945 77.0369C8.63289 76.5421 8.10424 76.0571 7.37868 75.9536C6.65313 75.8501 6.00542 76.1673 5.93198 76.6622C5.85854 77.157 6.38719 77.642 7.11274 77.7455C7.8383 77.849 8.48602 77.5318 8.55945 77.0369Z" fill="#E6E6E6"/>
<path d="M17.1979 76.2105C17.2714 75.7157 16.7427 75.2307 16.0172 75.1272C15.2916 75.0237 14.6439 75.3409 14.5705 75.8357C14.497 76.3306 15.0257 76.8156 15.7512 76.9191C16.4768 77.0226 17.1245 76.7053 17.1979 76.2105Z" fill="#3F3D56"/>
<path d="M6.19397 70.1807C6.26741 69.6859 5.73876 69.2009 5.01321 69.0974C4.28765 68.9939 3.63994 69.3111 3.5665 69.8059C3.49307 70.3008 4.02171 70.7858 4.74727 70.8893C5.47282 70.9928 6.12053 70.6756 6.19397 70.1807Z" fill="#FF6584"/>
<path d="M2.44025 67.3723C2.44375 66.918 2.18529 66.5478 1.86295 66.5454C1.5406 66.5431 1.27645 66.9094 1.27295 67.3636C1.26944 67.8179 1.52792 68.1881 1.85026 68.1905C2.1726 68.1929 2.43675 67.8266 2.44025 67.3723Z" fill="#E6E6E6"/>
<path d="M1.16734 62.1399C1.1716 61.6857 0.913748 61.3158 0.591404 61.3139C0.269059 61.3119 0.0042921 61.6785 2.88614e-05 62.1328C-0.00423438 62.5871 0.253621 62.9569 0.575965 62.9589C0.898309 62.9608 1.16308 62.5942 1.16734 62.1399Z" fill="#3F3D56"/>
<path d="M11.0662 71.3475C11.0697 70.8932 10.8112 70.523 10.4889 70.5207C10.1665 70.5183 9.90237 70.8846 9.89886 71.3389C9.89536 71.7931 10.1538 72.1633 10.4762 72.1657C10.7985 72.1681 11.0627 71.8018 11.0662 71.3475Z" fill="#E6E6E6"/>
<path d="M6.89161 73.3908C6.89512 72.9366 6.63664 72.5664 6.3143 72.564C5.99196 72.5616 5.7278 72.9279 5.7243 73.3822C5.7208 73.8365 5.97927 74.2066 6.30161 74.209C6.62395 74.2114 6.88811 73.8451 6.89161 73.3908Z" fill="#FF6584"/>
<path d="M12.7027 77.1675C12.7062 76.7132 12.4477 76.343 12.1254 76.3406C11.803 76.3382 11.5389 76.7045 11.5354 77.1588C11.5319 77.6131 11.7904 77.9833 12.1127 77.9856C12.435 77.988 12.6992 77.6217 12.7027 77.1675Z" fill="#3F3D56"/>
</g>
<defs>
<clipPath id="clip0_103_107">
<rect width="101" height="118" fill="white"/>
</clipPath>
</defs>
</svg>
