<svg width="730" height="461" viewBox="0 0 730 461" fill="none" xmlns="http://www.w3.org/2000/svg">
<g clip-path="url(#clip0_65_293)">
<path d="M448.653 153.836C466.062 153.836 480.175 140.424 480.175 123.879C480.175 107.335 466.062 93.9226 448.653 93.9226C431.245 93.9226 417.132 107.335 417.132 123.879C417.132 140.424 431.245 153.836 448.653 153.836Z" fill="#F2F2F2"/>
<path d="M261.277 93.9225C275.784 93.9225 287.545 82.7458 287.545 68.9586C287.545 55.1715 275.784 43.9948 261.277 43.9948C246.77 43.9948 235.009 55.1715 235.009 68.9586C235.009 82.7458 246.77 93.9225 261.277 93.9225Z" fill="#F2F2F2"/>
<path d="M175.469 330.247C189.976 330.247 201.737 319.071 201.737 305.284C201.737 291.496 189.976 280.32 175.469 280.32C160.962 280.32 149.201 291.496 149.201 305.284C149.201 319.071 160.962 330.247 175.469 330.247Z" fill="#F2F2F2"/>
<path d="M148.771 343.562C156.379 352.132 164.61 413.923 173.392 421.395L585.427 422.227C594.21 414.755 602.44 352.965 610.049 344.394L148.771 343.562Z" fill="#E6E6E6"/>
<path d="M277.211 270.98V356.323H340.122V270.98C340.124 269.719 339.261 268.606 337.994 268.234C337.704 268.142 337.399 268.097 337.093 268.1H280.249C278.574 268.097 277.214 269.385 277.211 270.977L277.211 270.98ZM301.762 300.304C301.797 296.779 304.831 293.948 308.54 293.98C312.201 294.012 315.16 296.825 315.194 300.304V310.206C315.176 313.731 312.155 316.575 308.446 316.558C304.762 316.542 301.78 313.707 301.762 310.206V300.304Z" fill="#3F3D56"/>
<path d="M178.243 142.399V298.223C178.246 302.358 181.772 305.709 186.123 305.713H429.1C433.45 305.709 436.976 302.358 436.98 298.223V142.399C436.969 138.268 433.446 134.923 429.1 134.918H186.123C181.777 134.923 178.253 138.268 178.243 142.399Z" fill="#3F3D56"/>
<path d="M183.943 144.338V296.301C183.947 298.51 185.83 300.3 188.155 300.304H427.077C429.401 300.3 431.285 298.51 431.289 296.301V144.338C431.288 142.126 429.404 140.332 427.077 140.327H188.155C185.827 140.332 183.943 142.126 183.943 144.338Z" fill="#6C63FF"/>
<path d="M232.661 365.376C233.154 365.964 233.902 366.304 234.692 366.3H376.836C378.28 366.298 379.45 365.184 379.448 363.811C379.448 363.641 379.429 363.471 379.392 363.304L377.186 353.344C377 352.519 376.387 351.839 375.557 351.538C375.261 351.428 374.947 351.371 374.629 351.372H236.89C236.572 351.371 236.258 351.428 235.962 351.538C235.132 351.839 234.519 352.519 234.333 353.344L232.127 363.304C231.968 364.036 232.164 364.797 232.661 365.376Z" fill="#3F3D56"/>
<path d="M195.836 161.26H419.395C419.886 161.25 420.276 160.864 420.265 160.397C420.255 159.945 419.871 159.581 419.395 159.571H195.836C195.345 159.581 194.956 159.967 194.967 160.434C194.977 160.886 195.36 161.251 195.836 161.26Z" fill="#3F3D56"/>
<path d="M696.92 326.358C696.902 326.317 696.894 326.283 696.876 326.25C696.538 325.384 696.143 324.54 695.694 323.721C693.146 319.169 695.843 312.179 692.971 304.457C688.33 291.942 682.674 284.561 674.382 277.945C674.137 277.745 673.892 277.554 673.638 277.354L673.629 277.346C668.095 273.027 661.424 268.991 653.14 263.965C651.415 262.917 645.453 265.946 645.593 260.753C645.75 254.987 645.917 249.012 642.94 245.284L642.747 245.043L642.441 244.968C632.234 243.049 621.823 242.287 611.427 242.696H611.419C607.004 242.852 602.621 243.463 598.346 244.518C598.031 244.602 597.716 244.685 597.409 244.785C597.173 244.843 596.936 244.918 596.7 244.993L596.507 245.059L596.358 245.193C593.478 247.93 592.812 252.84 592.497 257.957V257.966C592.436 258.898 592.383 259.83 592.339 260.762C592.094 265.738 579.459 269.757 574.644 272.012C565.599 276.256 566.963 286.145 566.858 286.145C566.858 286.145 551.651 315.815 551.467 345.864C551.458 347.536 551.446 349.217 551.432 350.906C551.327 364.903 551.047 379.14 549.943 392.113C549.462 397.689 548.84 403.023 548.008 408.007C543.963 432.28 525.637 412.126 516.872 428.278C517.16 429.866 517.645 431.416 518.317 432.896C519.324 433.462 520.357 434.011 521.382 434.56C525.926 436.965 530.555 439.209 535.268 441.292C535.531 441.409 535.794 441.525 536.056 441.633C544.702 445.435 553.614 448.666 562.727 451.303C564.504 451.819 566.282 452.31 568.077 452.776C583.954 456.941 600.303 459.268 616.768 459.707C616.835 459.7 616.903 459.697 616.97 459.699C636.442 459.187 655.787 456.537 674.619 451.802C674.881 451.735 675.144 451.669 675.407 451.602C676.641 451.286 677.867 450.97 679.093 450.637C689.931 447.706 700.55 444.087 710.877 439.803C710.887 440.168 710.926 440.532 710.991 440.893C711 441.01 711.017 441.127 711.043 441.242C711.061 441.109 711.078 440.976 711.087 440.843C711.139 440.452 711.183 440.052 711.227 439.653C716.586 389.991 705.457 347.827 696.92 326.358Z" fill="#CCCCCC"/>
<path d="M619.409 238.383C647.491 238.383 670.255 216.749 670.255 190.061C670.255 163.373 647.491 141.739 619.409 141.739C591.328 141.739 568.563 163.373 568.563 190.061C568.563 216.749 591.328 238.383 619.409 238.383Z" fill="#FFB6B6"/>
<path d="M623.173 239.254C630.925 237.937 638.545 235.994 645.949 233.445C653.219 230.581 667.735 215.653 671.001 207.682C673.427 201.76 673.982 193.111 674.021 186.898C674.184 170.262 666.918 154.34 654.025 143.085C651.53 140.725 648.41 139.051 644.995 138.238C644.697 138.186 644.393 138.148 644.088 138.123C639.294 137.827 634.703 136.176 630.904 133.382C630.162 132.812 629.377 132.294 628.556 131.831C624.465 129.664 619.893 128.447 615.212 128.281C607.61 127.781 597.527 131.541 585.245 139.463C579.074 143.442 571.51 143.816 565.608 143.697C564.937 143.698 564.317 144.037 563.98 144.588C562.011 147.184 559.082 148.975 555.78 149.602C553.773 150.061 552.196 153.117 550.341 157.066C549.92 157.962 549.429 159.008 549.054 159.659L548.767 158.596L547.868 160.007C543.243 167.268 545.687 176.717 553.327 181.113C555.38 182.294 557.684 183.027 560.072 183.256C562.214 183.394 564.365 183.324 566.491 183.047C567.788 182.92 569.129 182.788 570.434 182.763C579.01 182.841 586.911 187.195 591.243 194.229C593.043 197.105 596.956 198.05 599.982 196.339C600.458 196.07 600.894 195.744 601.281 195.368C603.546 192.897 606.941 191.637 610.368 191.993C611.894 192.465 613.202 193.422 614.073 194.702C615.103 196.117 616.553 197.209 618.239 197.837C623.884 199.401 626.519 210.47 626.58 220.093C626.638 229.369 624.454 236.491 621.269 237.413C618.818 238.122 618.566 238.344 618.471 238.798L618.387 239.205L618.74 239.505C620.219 239.725 621.732 239.639 623.173 239.254Z" fill="#2F2E41"/>
<path d="M443.216 388.651C452.951 388.651 460.843 386.258 460.843 383.305C460.843 380.352 452.951 377.958 443.216 377.958C433.48 377.958 425.588 380.352 425.588 383.305C425.588 386.258 433.48 388.651 443.216 388.651Z" fill="#3F3D56"/>
<path d="M443.216 385.087C452.951 385.087 460.843 382.693 460.843 379.74C460.843 376.788 452.951 374.394 443.216 374.394C433.48 374.394 425.588 376.788 425.588 379.74C425.588 382.693 433.48 385.087 443.216 385.087Z" fill="#3F3D56"/>
<path d="M440.117 383.323L442.743 383.286L442.019 336.671C441.804 321.193 450.264 306.773 464.232 298.809L514.367 270.329L513.02 268.186L462.884 296.667C448.112 305.089 439.165 320.339 439.392 336.709L440.117 383.323Z" fill="#3F3D56"/>
<path d="M513.066 291.343C509.545 291.343 506.69 288.63 506.69 285.284V247.501C506.69 244.154 509.545 241.441 513.066 241.441C516.587 241.441 519.442 244.154 519.442 247.501V285.284C519.442 288.63 516.587 291.343 513.066 291.343Z" fill="#6C63FF"/>
<path d="M429.685 319.998C431.894 327.678 440.236 332.201 448.317 330.102C449.178 329.878 450.017 329.582 450.824 329.218L488.635 365.731L494.485 339.697L457.683 309.015C453.574 302.027 444.283 299.527 436.93 303.432C430.777 306.7 427.782 313.548 429.685 319.998Z" fill="#FFB6B6"/>
<path d="M627.186 281.872L626.946 281.744L599.377 272.734C592.297 270.42 584.511 271.107 578.001 274.621C576.506 275.424 575.101 276.369 573.806 277.44L573.797 277.441C569.477 280.988 566.5 285.783 565.323 291.092L550.842 356.429L521.727 341.517L509.863 338.824L499.063 328.524L472.094 318.088L470.597 319.786L457.027 335.201L455.961 336.413L485.841 377.495L499.234 378.88L502.986 385.223L503.251 385.339L514.231 390.042L561.059 410.092L583.736 393.599L587.284 391.01C616.622 365.179 630.336 344.399 636.062 328.572C639.092 320.212 639.89 313.246 639.59 307.63C638.657 290.274 627.652 282.204 627.186 281.872Z" fill="#CCCCCC"/>
<path d="M653.104 297.794H639.97C602.009 297.794 571.236 327.04 571.236 363.116C558.984 377.516 559.734 395.597 571.236 416.722L533.59 401.807C528.229 399.695 522.082 402.114 519.861 407.209C517.646 412.288 520.168 418.113 525.503 420.24L571.236 438.359V441.733C571.236 452.314 580.262 460.892 591.395 460.892H701.678C712.812 460.892 721.838 452.314 721.838 441.733C730.013 413.226 735.131 385.581 721.838 363.116C721.837 327.04 691.064 297.794 653.104 297.794Z" fill="#3F3D56"/>
<path d="M338.329 242.874C340.263 242.874 341.831 241.384 341.831 239.545C341.831 237.707 340.263 236.217 338.329 236.217C336.395 236.217 334.827 237.707 334.827 239.545C334.827 241.384 336.395 242.874 338.329 242.874Z" fill="#F2F2F2"/>
<path d="M350.587 242.874C352.522 242.874 354.09 241.384 354.09 239.545C354.09 237.707 352.522 236.217 350.587 236.217C348.653 236.217 347.085 237.707 347.085 239.545C347.085 241.384 348.653 242.874 350.587 242.874Z" fill="#F2F2F2"/>
<path d="M362.846 242.874C364.78 242.874 366.348 241.384 366.348 239.545C366.348 237.707 364.78 236.217 362.846 236.217C360.911 236.217 359.343 237.707 359.343 239.545C359.343 241.384 360.911 242.874 362.846 242.874Z" fill="#F2F2F2"/>
<path d="M250.122 204.625L276.265 204.995C276.99 204.972 277.558 204.393 277.533 203.704C277.509 203.048 276.955 202.522 276.265 202.499L250.122 202.129C249.397 202.153 248.829 202.731 248.854 203.42C248.878 204.076 249.432 204.602 250.122 204.625Z" fill="white"/>
<path d="M281.619 230.751C284.713 233.02 289.685 231.034 290.549 227.529C291.555 223.444 287.801 219.6 283.541 219.689C278.803 219.787 275.454 223.574 274.941 227.837C274.539 231.767 276.226 235.629 279.437 238.134C282.854 240.975 287.534 242.014 291.921 240.906C293.539 240.452 292.85 238.043 291.223 238.499C285.456 239.911 279.541 236.762 277.796 231.351C276.972 228.407 277.751 224.73 280.638 223.045C283.234 221.531 286.908 222.081 287.898 225.114C288.485 226.712 287.598 228.46 285.917 229.018C284.913 229.352 283.801 229.193 282.945 228.595C282.318 228.252 281.517 228.451 281.148 229.043C280.8 229.64 281.007 230.392 281.619 230.751Z" fill="white"/>
<path d="M308.419 219.485C305.782 222.291 303.421 225.32 301.364 228.535L298.295 220.824C297.702 219.336 295.162 219.981 295.762 221.488C297.066 224.765 298.371 228.042 299.675 231.32C298.173 233.962 296.874 236.704 295.789 239.524C295.208 241.035 297.746 241.687 298.322 240.188C299.079 238.231 299.946 236.314 300.92 234.446C302.115 237.448 303.31 240.451 304.505 243.453C305.098 244.941 307.638 244.296 307.038 242.789C305.543 239.032 304.047 235.275 302.552 231.518C304.731 227.842 307.321 224.399 310.277 221.25C311.401 220.056 309.549 218.285 308.419 219.485Z" fill="white"/>
<path d="M261.774 203.406L263.611 240.824C263.69 242.423 266.317 242.432 266.238 240.824L264.401 203.406C264.323 201.806 261.695 201.797 261.774 203.406Z" fill="white"/>
<path d="M326.567 222.903H319.951C319.934 221.639 319.917 220.376 319.89 219.115C319.856 217.511 317.229 217.505 317.263 219.115C317.29 220.377 317.317 221.64 317.343 222.903H311.675C310.95 222.927 310.382 223.505 310.407 224.194C310.431 224.85 310.985 225.376 311.675 225.399H317.396C317.408 225.93 317.419 226.46 317.43 226.991C317.393 229.447 317.504 231.903 317.762 234.347C318.323 238.271 321.121 242.73 325.903 242.345C327.575 242.21 327.59 239.713 325.903 239.848C321.588 240.196 320.349 235.378 320.187 232.223C320.07 229.952 320.02 227.676 319.985 225.399H326.567C327.292 225.375 327.86 224.797 327.835 224.107C327.811 223.452 327.257 222.926 326.567 222.903Z" fill="#F2F2F2"/>
<path d="M68.8841 339.168C68.033 339.172 67.1839 339.248 66.3472 339.396L52.424 255.629L66.3725 174.986C68.2873 163.918 60.398 153.47 48.7512 151.65C38.2407 150.007 28.0622 155.971 24.8853 165.634C19.6563 181.535 17.0688 198.115 17.2159 214.774L17.7024 269.771L54.8206 354.233C55.7507 361.617 62.8028 366.886 70.5721 366.002C78.3414 365.118 83.8856 358.416 82.9556 351.033C82.1028 344.262 76.059 339.166 68.8841 339.168Z" fill="#FFB8B8"/>
<path d="M43.3846 146.296C24.8328 146.326 9.80149 160.611 9.77075 178.242L16.6004 243.814L17.2133 249.689L17.5285 249.706L41.5109 250.838H41.5196L53.1562 251.386L55.1526 251.478L57.4379 243.814L76.9986 178.242C76.9787 160.607 61.9409 146.316 43.3846 146.296Z" fill="#E6E6E6"/>
<path d="M44.4177 461L33.3853 428.83C33.3853 428.83 13.1591 409.283 39.1029 357.392C39.672 356.243 40.2674 355.086 40.8891 353.905C41.9748 351.832 43.1364 349.708 44.3739 347.53C46.2477 344.368 48.1477 341.098 50.2929 337.72L52.2542 338.053L54.1105 338.361L60.4585 339.426H60.4673L152.396 354.821C152.396 354.821 150.706 361.993 149.795 369.69C149.068 376.007 148.832 382.397 150.548 385.101C154.26 391.143 149.243 407.469 149.243 407.469C149.243 407.469 149.524 409.05 149.996 411.846V411.855C150.46 414.575 151.108 418.436 151.844 423.113C151.879 423.429 151.923 423.745 151.975 424.062C153.14 431.634 154.532 441.195 155.775 451.472C156.161 454.592 156.528 457.78 156.879 461L44.4177 461Z" fill="#2F2E41"/>
<path d="M18.2153 163.258C20.5237 157.207 25.917 152.692 32.5237 151.278C37.3425 149.976 42.3578 149.455 47.3588 149.737C61.9988 150.285 58.3074 119.115 72.8038 121.133C72.8038 121.133 86.4482 116.505 97.1239 124.985C106.822 132.689 113.508 153.64 115.997 152.448C116.526 152.2 117.796 152.226 119.574 152.45C140.346 155.071 155.294 172.779 154.059 192.659L153.004 209.653C153.004 209.653 160.462 220.323 149.64 239.16L136.004 297.07C136.004 297.07 170.119 361.284 154.392 374.458C138.665 387.633 77.0038 367.09 77.0038 367.09C77.0038 367.09 42.4253 356.932 35.1326 352.529C19.7282 343.228 39.4165 322.022 51.5892 323.022C52.244 320.555 51.3819 317.948 49.3599 316.28C45.9956 314.239 49.7652 309.616 50.0489 309.192C49.7246 309.5 47.171 312.043 45.2255 306.688C43.2799 301.334 49.2788 294.592 49.2788 294.592L32.3358 259.923L19.0004 232.534L17.379 229.376L20.1606 212.334L19.9003 211.822C13.9731 200.078 12.6613 186.707 16.202 174.124C17.4864 169.496 18.411 165.28 18.2153 163.258Z" fill="#E6E6E6"/>
<path d="M156.879 461H151.03C152.649 457.697 154.252 454.492 155.775 451.472C156.161 454.592 156.528 457.78 156.879 461Z" fill="#2F2E41"/>
<path d="M271.687 267.159C271.169 267.8 270.712 268.485 270.323 269.204L192.107 228.382L133.554 168.529C125.517 160.314 111.995 159.846 103.35 167.484C95.5497 174.376 94.2801 185.675 100.373 193.978C110.402 207.643 122.611 219.737 136.562 229.826L182.615 263.131L275.611 286.95C282.323 290.771 291.025 288.698 295.046 282.319C299.067 275.939 296.885 267.67 290.173 263.848C284.018 260.344 276.078 261.766 271.687 267.159Z" fill="#FFB8B8"/>
<path d="M165.814 250.978L189.033 225.238L190.327 223.799L142.767 162.545C140.711 161.024 138.472 159.741 136.097 158.723L136.091 158.718C119.193 151.418 99.2685 158.52 91.5882 174.579C85.1408 188.06 89.2891 203.985 101.61 213.05L115.49 221.322L165.607 251.204L165.814 250.978Z" fill="#E6E6E6"/>
<path d="M124.141 93.1232C112.286 113.725 85.1017 121.293 63.4236 110.026C41.7455 98.7598 33.7824 72.9251 45.6375 52.323C57.4926 31.7209 84.6767 24.1531 106.355 35.4198C115.461 40.1524 122.552 47.7466 126.414 56.9018C126.619 57.3883 126.803 57.8749 126.987 58.381C131.313 69.8153 130.277 82.4631 124.141 93.1232Z" fill="#FFB6B6"/>
<path d="M130.571 58.381C128.646 53.2621 129.486 55.9286 127.54 50.8291C128.81 55.3447 126.803 57.8749 126.987 58.381H73.719V28.9523C89.3249 23.0743 104.582 18.0722 113.798 28.9523C130.9 28.953 144.763 42.1283 144.764 58.381L130.571 58.381Z" fill="#2F2E41"/>
<path d="M111.689 140.186C111.648 139.641 111.586 139.076 111.504 138.532C110.789 134.533 109.629 130.619 108.043 126.853C106.507 122.747 104.951 118.62 103.394 114.514C105.399 121.968 104.788 129.841 101.654 136.936C92.6629 130.279 98.336 115.059 86.5803 115.059C58.318 115.059 29.2363 93.279 29.2363 66.4C29.2363 39.5403 41.3605 19.4541 69.6228 19.4541C97.9058 19.4541 120.843 31.7549 121.396 58.6146C86.5804 66.4 118.263 137.461 111.689 140.186Z" fill="#2F2E41"/>
<path d="M32.768 62.2831C50.8653 62.2831 65.536 48.3405 65.536 31.1415C65.536 13.9425 50.8653 0 32.768 0C14.6707 0 0 13.9425 0 31.1415C0 48.3405 14.6707 62.2831 32.768 62.2831Z" fill="#2F2E41"/>
<path d="M205.521 153.88C207.706 153.88 209.477 152.159 209.477 150.036C209.477 147.914 207.706 146.193 205.521 146.193C203.336 146.193 201.565 147.914 201.565 150.036C201.565 152.159 203.336 153.88 205.521 153.88Z" fill="#3F3D56"/>
<path d="M219.187 153.88C221.372 153.88 223.143 152.159 223.143 150.036C223.143 147.914 221.372 146.193 219.187 146.193C217.002 146.193 215.231 147.914 215.231 150.036C215.231 152.159 217.002 153.88 219.187 153.88Z" fill="#3F3D56"/>
<path d="M232.853 153.88C235.038 153.88 236.809 152.159 236.809 150.036C236.809 147.914 235.038 146.193 232.853 146.193C230.668 146.193 228.897 147.914 228.897 150.036C228.897 152.159 230.668 153.88 232.853 153.88Z" fill="#3F3D56"/>
<path d="M248.436 153.074C248.315 153.074 248.193 153.029 248.102 152.94L245.433 150.347C245.255 150.174 245.255 149.898 245.433 149.725L248.102 147.132C248.283 146.957 248.579 146.954 248.763 147.125C248.948 147.297 248.951 147.579 248.771 147.754L246.421 150.036L248.771 152.319C248.951 152.494 248.948 152.775 248.763 152.947C248.672 153.032 248.554 153.074 248.436 153.074Z" fill="#3F3D56"/>
<path d="M252.921 153.074C252.803 153.074 252.685 153.032 252.594 152.947C252.41 152.775 252.406 152.494 252.587 152.318L254.936 150.036L252.587 147.754C252.406 147.579 252.41 147.297 252.594 147.125C252.779 146.953 253.075 146.957 253.256 147.132L255.925 149.725C256.103 149.898 256.103 150.174 255.925 150.347L253.256 152.94C253.164 153.029 253.043 153.074 252.921 153.074Z" fill="#3F3D56"/>
<path d="M401.293 146.638H396.329C395.763 146.638 395.305 147.073 395.305 147.611V152.333C395.305 152.871 395.763 153.306 396.329 153.306H401.293C401.859 153.306 402.322 152.871 402.322 152.333V147.611C402.322 147.073 401.859 146.638 401.293 146.638Z" fill="#3F3D56"/>
<path d="M389.13 146.638H384.167C383.601 146.638 383.142 147.073 383.142 147.611V152.333C383.142 152.871 383.601 153.306 384.167 153.306H389.13C389.696 153.306 390.159 152.871 390.159 152.333V147.611C390.159 147.073 389.696 146.638 389.13 146.638Z" fill="#3F3D56"/>
<path d="M412.754 146.86H407.79C407.224 146.86 406.766 147.296 406.766 147.834V152.555C406.766 153.093 407.224 153.529 407.79 153.529H412.754C413.32 153.529 413.783 153.093 413.783 152.555V147.834C413.783 147.296 413.32 146.86 412.754 146.86Z" fill="#3F3D56"/>
<path d="M330.291 148.656H286.576C285.884 148.656 285.327 149.19 285.327 149.843C285.327 150.497 285.884 151.03 286.576 151.03H330.291C330.979 151.03 331.54 150.497 331.54 149.843C331.54 149.19 330.979 148.656 330.291 148.656Z" fill="#3F3D56"/>
</g>
<defs>
<clipPath id="clip0_65_293">
<rect width="730" height="461" fill="white"/>
</clipPath>
</defs>
</svg>
